<?xml version="1.0" standalone="no"?>
<!DOCTYPE svg PUBLIC "-//W3C//DTD SVG 1.1//EN" "http://www.w3.org/Graphics/SVG/1.1/DTD/svg11.dtd" >
<!--
2013-9-30: Created.
-->
<svg>
<metadata>
Created by iconfont
</metadata>
<defs>

<font id="iconfont" horiz-adv-x="1024" >
  <font-face
    font-family="iconfont"
    font-weight="500"
    font-stretch="normal"
    units-per-em="1024"
    ascent="896"
    descent="-128"
  />
    <missing-glyph />
    
    <glyph glyph-name="jiankong1" unicode="&#59059;" d="M733.3-10.3c-4.5-0.3-8-0.5-11.5-0.5-140.7-0.1-281.5-0.1-422.2-0.1-12 0-12.1 0.1-12 12.1v29.7c0 8.4 3.5 11.8 12.1 11.8 29.4 0 58.9-0.1 88.3 0 12.3 0.1 13.4 1.4 13.4 13.3v29.7c-0.1 11.1-2.8 13.7-13.7 13.7H118.8c-23.4 0-40 10.4-48.4 32.4-2.3 6-4.1 12.6-4.1 18.9-0.2 187.6 0 375.1-0.3 562.6 0 21.8 11.7 35.6 28 46.4 5.6 3.7 13.6 4.5 20.6 5.4 6.4 0.9 13.2 0.3 19.9 0.3h764.9c18.3 0 34.5-5.2 45.8-19.8 7.5-9.6 13.7-19.2 13.6-33.6-0.7-186.5-0.5-373-0.5-559.5 0-9.2 0-17.3-7.8-25.3-5.5-5.7-8.7-14.5-16.4-18.5-7.1-3.8-14.9-8.6-22.5-8.8-46.8-0.9-93.7-0.5-140.5-0.5-45.7-0.1-91.5 0-137.2 0-11.3 0-11.6-0.3-11.7-11.8-0.1-11.7 0.5-23.5-0.2-35.3-0.5-8.6 4.1-9.8 10.7-9.8 29 0.1 57.9 0.1 86.7 0.1 12.6 0 13.8-1.3 13.7-13.6 0.2-12.7 0.2-25.5 0.2-39.3zM121.4 711.4c-0.3-5.7-0.9-10.2-0.9-14.7-0.1-39.9 0-79.7 0-119.6v-297.8c0-14.9 0-14.8 14.9-14.8H889c12 0 14.5 2.4 14.5 14.4V698.7c0 11.9-0.9 12.7-12.8 12.7H121.4z m325.5-211c-11.6-1.1-22 1.5-31.5 8.6-1.4 1-5.6-0.1-7.5-1.6-21.2-16.8-42.1-33.8-63.3-50.6-13.4-10.6-27.1-20.8-40.5-31.3-5.3-4.2-10.4-8.7-4.1-16.1 0.9-1 1.1-3.2 0.7-4.6-5.1-17-9.8-33.9-28.2-42.3-23.3-10.7-45.3-4.4-61.1 14.9-9.4 11.5-11.5 25-8.8 38.5 3.1 15.4 12.1 28.1 27.3 34.1 8.1 3.1 17.4 3.5 26.1 5 1.8 0.3 4.1 0.2 5.5-0.7 12.9-8.2 22.5-3.6 32.8 5.9 12.1 11.2 25.9 20.6 39 30.7 19.3 15 38.8 29.8 57.7 45.2 3.1 2.5 5.4 7.7 5.3 11.7-0.4 18.1 8.1 32.4 22 41.2 13.1 8.4 29 10.5 44.8 3.5 8.6-3.7 15.7-8.5 21-16.2 9.8-14.6 12.6-29.6 5.2-46.5-1.4-3.1 2.1-9.5 5-13 11.9-14.7 25.5-28 36-43.5 5.4-8.1 11-6.9 17.9-7.4 9-0.6 18.5 2.7 26.7-4.5 0.9-1 5.8 0.7 7.8 2.4 14 12.8 27.8 25.8 41.7 38.9 23.5 21.9 46.9 43.9 70.6 65.8 8 7.4 16.5 14.2 24.1 22 2.7 2.8 4.5 7.3 5 11.3 0.7 6.3-1.1 12.9-0.3 19.2 1.9 14.8 7.3 28.1 21.5 35.3 7.7 3.9 16.1 8.8 24.2 8.7 14-0.2 27.8-4.7 38.1-15.3 14.2-14.7 13.6-33.5 9.9-51-2.8-13-13.6-22.7-26.9-27.1-7.3-2.5-15.4-3.2-23.1-4.5-1.5-0.3-3.6-0.3-4.7 0.5-13.9 9.6-21-1.2-29.5-9.2-13.5-13-27.5-25.4-41.3-38.2-20-18.7-40-37.5-60-56.2-9.8-9.3-19.9-18.4-29.3-28.1-2.4-2.4-4.1-7-3.7-10.3 2.2-20.8-5.7-37.9-23-48-11.3-6.6-24.8-10.3-39.4-3.9-10 4.5-19.5 8.5-25.4 18-8.8 14-12.8 28.6-5.2 44.8 2.4 5 2.9 10.4-2 16-12.7 14.5-24.2 30-36.3 44.9-1.6 1.9-4.6 3.3-7.1 3.5-4.5 0.4-9.2-0.3-13.7-0.5z m-180.7-93.5c-0.1 9.5-5.5 14.2-15.9 14.2-9.5-0.1-15.2-5.8-15-15.3 0.1-9.4 6.3-15.5 15.3-15.5 8 0.1 15.7 8.3 15.6 16.6z m506.2 224.3c-10.1 0.1-15.3-4.8-15.4-14.7-0.1-9.5 5.8-16.1 14.5-16.1 7.5 0 16.4 8.3 16.4 15.5 0.1 8.3-6.9 15.2-15.5 15.3zM536.7 420c-0.2-11 3.6-15.4 13.4-15.5s17 6 17.1 14.7c0.1 5.2-8.1 16.4-15.7 16.1-9.4-0.2-14.6-5.1-14.8-15.3z m-75.8 127.6c-3.5 12-9.8 18.3-22.9 14.2-7.1-2.2-7.4-8.8-9.2-13.7-1.6-4.8 6.9-14 14.2-15.1 11.2-1.7 14.6 7.2 17.9 14.6z"  horiz-adv-x="1024" />

    
    <glyph glyph-name="gaojing2" unicode="&#58954;" d="M885.489 109.248l-71.971 126.758 0.127 264.848c0.029 55.223-20.006 113.457-56.41 163.966-37.033 51.385-89.039 91.609-146.435 113.253-1.764 0.69-3.808 1.162-5.938 1.319-28.835 10.229-67.915 17.77-108.398 20.065l99.935-8.145c0.023 47.785-38.833 86.677-86.615 86.701-47.791 0.020-86.684-38.832-86.708-86.617l-0.002-8.188c-6.698-1.911-10.941-3.264-11.427-3.427-0.254-0.079-0.507-0.17-0.755-0.256-58.292-21.081-111.227-61.209-149.055-112.992-37.133-50.839-57.597-109.574-57.622-165.388l-0.129-264.847-77.147-135.619c-9.282-16.162-9.235-36.295 0.134-52.543 9.313-16.143 26.747-26.173 45.507-26.185l190.48-0.090c10.881-70.937 72.31-125.453 146.244-125.491 73.937-0.038 135.417 54.419 146.369 125.348l190.447-0.092c29.036-0.016 52.665 23.567 52.683 52.56 0.006 13.163-4.698 25.473-13.311 35.056l-0.001 0.001M509.894 829.25c19.647-0.010 35.737-15.508 36.704-34.917-15.213 3.045-32.853 4.954-50.88 5.28 37.564-3.044 36.559-2.97 35.536-2.97-0.841 0-1.67-0.051-2.484-0.15-0.617 0.117-1.343 0.224-2.084 0.337-5.133 0.781-10.943 1.66-17.429 1.665-6.475 0.001-12.289-0.873-17.418-1.643-0.627-0.097-1.246-0.191-1.86-0.276-0.812 0.116-1.748 0.182-2.701 0.182-0.983 0-1.949-0.070-2.894-0.206-3.675-0.518-7.465-1.137-11.201-1.809 1.172 19.228 17.186 34.518 36.71 34.509l0.002-0.001M508.886-46.162c-40.17 0.019-73.842 28.247-82.314 65.899l164.691-0.080c-8.509-37.639-42.206-65.838-82.378-65.821M818.612 95.545l-617.353 0.302c-2.431 0-4.659 1.247-5.817 3.249-1.231 2.134-1.26 4.738-0.046 6.864l73.468 129.145c1.703 2.947 2.708 6.482 2.709 10.252l0.119 248.227c0.046 89.733 69.532 182.54 161.702 216.044 3.023 0.956 26.864 8.343 50.902 12.285 1.429-0.15 2.89-0.167 4.358-0.012 3.231 0.322 6.24 0.779 9.149 1.211 4.414 0.662 8.224 1.236 11.805 1.236 3.585-0.001 7.395-0.581 11.812-1.248 2.905-0.434 5.906-0.894 9.137-1.217 0.637-0.070 1.377-0.11 2.124-0.11 0.642 0 1.277 0.030 1.904 0.087 24.861-4.195 50.316-12.179 54.155-13.402 90.509-34.369 158.661-126.749 158.619-215.104l-0.121-248.237c0-3.77 1.006-7.303 2.764-10.349l69.883-123.078c1.872-3.265 4.507-5.903 7.669-7.726-2.82 1.865-2.143 0.181-2.14-1.686-0.007-3.779-2.992-6.74-6.805-6.738l0.001 0.005M846.142 66.866z"  horiz-adv-x="1024" />

    
    <glyph glyph-name="quanping" unicode="&#58955;" d="M217.088 716.8h589.312c20.992 0 37.888-16.896 37.888-37.888v-589.312c0-20.992-16.896-37.888-37.888-37.888H217.088c-20.992 0-37.888 16.896-37.888 37.888V678.912c0 20.992 16.896 37.888 37.888 37.888zM250.88 626.688v-484.864c0-10.24 8.192-18.432 18.432-18.432h484.864c10.24 0 18.432 8.192 18.432 18.432V626.688c0 10.24-8.192 18.432-18.432 18.432H269.312c-10.24 0-18.432-8.192-18.432-18.432zM71.68 665.6V803.84c0 11.264 9.216 20.48 20.48 20.48h138.24c19.968 0 35.84 15.872 35.84 35.84s-15.872 35.84-35.84 35.84H40.96C18.432 896 0 877.568 0 855.04v-189.44c0-19.968 15.872-35.84 35.84-35.84s35.84 15.872 35.84 35.84zM793.6 824.32h138.24c11.264 0 20.48-9.216 20.48-20.48v-138.24c0-19.968 15.872-35.84 35.84-35.84s35.84 15.872 35.84 35.84V855.04c0 22.528-18.432 40.96-40.96 40.96h-189.44c-19.968 0-35.84-15.872-35.84-35.84s15.872-35.84 35.84-35.84zM952.32 102.4v-138.24c0-11.264-9.216-20.48-20.48-20.48h-138.24c-19.968 0-35.84-15.872-35.84-35.84s15.872-35.84 35.84-35.84h189.44c22.528 0 40.96 18.432 40.96 40.96v189.44c0 19.968-15.872 35.84-35.84 35.84s-35.84-15.872-35.84-35.84zM230.4-56.32H92.16c-11.264 0-20.48 9.216-20.48 20.48v138.24c0 19.968-15.872 35.84-35.84 35.84s-35.84-15.872-35.84-35.84v-189.44c0-22.528 18.432-40.96 40.96-40.96h189.44c19.968 0 35.84 15.872 35.84 35.84s-15.872 35.84-35.84 35.84z"  horiz-adv-x="1024" />

    
    <glyph glyph-name="weilan" unicode="&#59035;" d="M681.232575 180.817887a29.410314 29.410314 0 0 0-22.377413 8.950965L317.69552 530.800623a32.734958 32.734958 0 0 0 0 45.522051 31.967733 31.967733 0 0 0 45.39418 0l340.584223-340.967835a32.031668 32.031668 0 0 0 0-45.458116 30.049669 30.049669 0 0 0-22.377413-8.950965z m340.584222-183.239043a127.998801 127.998801 0 0 0-250.9467-32.031668h-519.795332a127.998801 127.998801 0 0 0-250.882765 31.967732 128.126672 128.126672 0 0 0 95.391714 123.075771v522.992105a128.190608 128.190608 0 0 0 31.967733 251.138507c58.181273-0.127871 109.009968-39.639988 123.587254-96.095004h519.731396a128.062737 128.062737 0 0 0 251.841797-20.075736 128.126672 128.126672 0 0 0-96.286811-135.031703v-521.010105a128.126672 128.126672 0 0 0 95.391714-124.929899zM829.75466 766.594619a64.063336 64.063336 0 1 1 63.999401 64.063336 64.063336 64.063336 0 0 1-63.360046-64.063336h-0.639355zM125.633383 702.467347a64.063336 64.063336 0 1 1-44.56302 18.093737 63.935465 63.935465 0 0 1 46.481084-18.093737h-1.918064z m63.9994-704.888503a64.063336 64.063336 0 1 1-63.935465-64.127272 63.935465 63.935465 0 0 1 65.853529 64.127272h-1.918064z m59.587854 31.967732h521.64946a128.062737 128.062737 0 0 0 91.555586 91.044103v522.992105a128.062737 128.062737 0 0 0-91.555586 90.980167h-519.795332A128.062737 128.062737 0 0 0 159.64705 643.454913v-521.010106a128.062737 128.062737 0 0 0 91.555586-90.980167l-1.918064-1.918064z m704.057342-31.967732a64.063336 64.063336 0 1 1-63.935465-64.127272 63.935465 63.935465 0 0 1 68.410947 64.127272h-4.475482z"  horiz-adv-x="1024" />

    
    <glyph glyph-name="yujing" unicode="&#58956;" d="M858.584615-49.230769V470.646154c0 86.646154-31.507692 173.292308-94.523077 236.307692S638.030769 809.353846 551.384615 809.353846s-157.538462-39.384615-220.553846-102.4c-55.138462-63.015385-94.523077-149.661538-94.523077-236.307692V-49.230769H157.538462V470.646154c0 55.138462 7.876923 110.276923 31.507692 165.415384 15.753846 55.138462 47.261538 94.523077 86.646154 133.907693S354.461538 840.861538 401.723077 864.492308C448.984615 888.123077 496.246154 896 551.384615 896s102.4-7.876923 149.661539-31.507692c47.261538-23.630769 86.646154-55.138462 126.030769-94.523077s63.015385-86.646154 86.646154-133.907693c23.630769-47.261538 31.507692-102.4 31.507692-165.415384V-49.230769h-86.646154zM1055.507692-128H47.261538c-23.630769 0-47.261538 23.630769-47.261538 47.261538s23.630769 47.261538 39.384615 47.261539h1016.123077c23.630769 0 47.261538-23.630769 47.261539-47.261539s-23.630769-47.261538-47.261539-47.261538zM685.292308 407.630769H575.015385V659.692308L409.6 344.615385h118.153846v-244.184616l157.538462 307.2z"  horiz-adv-x="1102" />

    
    <glyph glyph-name="dingwei" unicode="&#58957;" d="M540.8 32l6.4 9.6c92.8 115.2 262.4 326.4 262.4 451.2C809.6 672 678.4 800 499.2 800 329.6 800 192 662.4 192 492.8c0-124.8 169.6-339.2 262.4-451.2l6.4-9.6c9.6-12.8 22.4-19.2 38.4-19.2s32 6.4 41.6 19.2zM384 518.4c0 64 51.2 115.2 115.2 115.2s115.2-51.2 115.2-115.2-51.2-115.2-115.2-115.2-115.2 51.2-115.2 115.2zM499.2 800c179.2 0 307.2-131.2 307.2-307.2 0-124.8-169.6-339.2-262.4-451.2l-3.2-9.6 0 0 6.4 9.6c92.8 115.2 262.4 326.4 262.4 451.2C809.6 672 678.4 800 499.2 800z"  horiz-adv-x="1024" />

    
    <glyph glyph-name="duijie" unicode="&#58894;" d="M482.56 599.04c-15.36-10.24-40.96-10.24-56.32 0-15.36 15.36-15.36 40.96 0 61.44L595.2 829.44C641.28 870.4 707.84 896 769.28 896c143.36 0 256-112.64 256-250.88 0-66.56-25.6-128-71.68-179.2L769.28 281.6c-46.08-46.08-112.64-71.68-179.2-71.68-92.16 0-174.08 46.08-220.16 122.88-10.24 15.36-20.48 35.84-25.6 56.32-5.12 20.48 5.12 40.96 25.6 46.08 20.48 5.12 40.96-5.12 46.08-25.6 5.12-15.36 10.24-30.72 15.36-40.96 30.72-56.32 87.04-87.04 148.48-87.04 46.08 0 87.04 15.36 122.88 51.2L887.04 512c35.84 35.84 51.2 76.8 51.2 122.88 0 97.28-76.8 174.08-174.08 174.08-46.08 0-92.16-15.36-122.88-51.2L482.56 599.04zM544 168.96L375.04 0c-66.56-66.56-184.32-66.56-245.76 0-66.56 66.56-66.56 179.2 0 245.76l179.2 184.32c35.84 35.84 81.92 51.2 122.88 51.2 46.08 0 92.16-15.36 122.88-51.2 10.24-10.24 20.48-20.48 25.6-35.84 10.24-10.24 15.36-25.6 15.36-40.96 5.12-20.48 30.72-35.84 46.08-25.6 20.48 5.12 35.84 30.72 25.6 46.08-5.12 20.48-15.36 40.96-25.6 56.32s-20.48 35.84-40.96 51.2c-51.2 46.08-112.64 71.68-179.2 71.68s-117.76-20.48-168.96-66.56L72.96 307.2c-97.28-97.28-97.28-261.12 0-358.4l5.12-5.12c97.28-97.28 261.12-92.16 358.4 5.12l168.96 168.96c15.36 15.36 15.36 40.96 0 56.32-20.48 10.24-46.08 10.24-61.44-5.12z"  horiz-adv-x="1025" />

    
    <glyph glyph-name="ic_biaozhunkuguanli" unicode="&#59002;" d="M896 334.41h-21.5a140.56 140.56 0 0 1-15.2 26.34l10.7 18.59a56.05 56.05 0 0 1-20.47 76.5l-11.08 6.41a56.1 56.1 0 0 1-76.5-20.5l-2-3.32V686.22a23.62 23.62 0 0 1-1.5 7.44A48.77 48.77 0 0 1 760 704c0 77.56-178.31 112.89-344 112.89S72 781.56 72 704a48.77 48.77 0 0 1 1.5-10.34 23.62 23.62 0 0 1-1.5-7.44v-640c0-11.64 8.46-20.89 19.45-23.08 50.42-49.17 191.46-72 324.55-72s274.13 22.85 324.55 72c11 2.19 19.45 11.44 19.45 23.08v59.44l2-3.41a56 56 0 0 1 76.48-20.5l11.08 6.41a56 56 0 0 1 20.52 76.46l-10.89 19.29a149.49 149.49 0 0 1 14.9 25.68H896a56.07 56.07 0 0 1 56 56v12.82a56.07 56.07 0 0 1-56 56z m-294 45l10.89-19.25a150.89 150.89 0 0 1-14.9-25.71H576a56 56 0 0 1-55-46c-0.22 0-0.4 0.09-0.62 0.07-33.81-3.25-68.94-4.88-104.39-4.88-192.28 0-296 46.06-296 64.88V464.89c64.16-35.08 183-51.55 296-51.55 62.66 0 127.1 5.08 183 15.55a52.73 52.73 0 0 1 2.9-49.52z m110 146.81c0-18.81-103.72-64.88-296-64.88s-296 46.07-296 64.88V642.67c64.16-35.07 183-51.55 296-51.55s231.84 16.48 296 51.55z m0-61.33v-26.55l-2 3.41a55.54 55.54 0 0 1-13.43 15.54q8.17 3.65 15.43 7.6z m-296 304c192.28 0 296-46.05 296-64.89s-103.72-64.88-296-64.88S120 685.19 120 704s103.72 64.89 296 64.89z m0-769.77c-192.28 0-296 46.07-296 64.88V287.11c64.16-35.08 183-51.55 296-51.55 37 0 73.63 1.72 109 5.06 0.37 0 0.66 0.26 1 0.32a55.89 55.89 0 0 1 50-31.35h21.5a142.93 142.93 0 0 1 6.89-13.59 141.14 141.14 0 0 1 8.31-12.75L602 164.66a56.05 56.05 0 0 1 20.47-76.5l11.08-6.41a56.1 56.1 0 0 1 76.5 20.5l2 3.32V64C712 45.19 608.28-0.88 416-0.88z m488 266.47a8.1 8.1 0 0 0-8-8h-31a55 55 0 0 1-13.54-1.72 24 24 0 0 1-17-15.87 102.51 102.51 0 0 0-21.56-37.13 24 24 0 0 1-5.25-22.62A56.59 56.59 0 0 1 813 167.5l15.53-26.91a8.07 8.07 0 0 0-2.93-10.87l-11.11-6.41a7.87 7.87 0 0 0-6-0.78 8.07 8.07 0 0 0-4.88 3.72L788.05 153a55.7 55.7 0 0 1-8.36 11 24 24 0 0 1-17.25 7.31 22.11 22.11 0 0 1-5-0.53 103.71 103.71 0 0 0-43-0.09 24.1 24.1 0 0 1-22.41-6.94 56.77 56.77 0 0 1-8.03-10.66l-15.53-26.84a8 8 0 0 0-4.86-3.72 8.22 8.22 0 0 0-6 0.78l-11.11 6.41a7.9 7.9 0 0 0-3.67 4.87 7.8 7.8 0 0 0 0.78 6l19 33a24 24 0 0 1-3.11 28.22A103.21 103.21 0 0 0 646 220a106 106 0 0 0-9 20.87 24 24 0 0 1-22.87 16.75H576a8.1 8.1 0 0 0-8 8v12.79a8.1 8.1 0 0 0 8 8h31a56.32 56.32 0 0 1 13.26 1.65 24 24 0 0 1 17.3 15.94 103 103 0 0 0 21.58 37.19 24 24 0 0 1 5.2 22.65 56.61 56.61 0 0 1-5.29 12.66l-15.53 26.91a7.81 7.81 0 0 0-0.75 6 7.93 7.93 0 0 0 3.68 4.87l11.11 6.41a8.22 8.22 0 0 0 6 0.78 8.11 8.11 0 0 0 4.88-3.72L684 391a55.41 55.41 0 0 1 8.36-11 23.78 23.78 0 0 1 22.22-6.78 103.71 103.71 0 0 0 43 0.09 24.2 24.2 0 0 1 22.41 6.94 56.77 56.77 0 0 1 8.01 10.66l15.53 26.84a8 8 0 0 0 4.86 3.72 7.91 7.91 0 0 0 6-0.78l11.11-6.41a8 8 0 0 0 3.67-4.87 7.82 7.82 0 0 0-0.78-6l-19-33a24 24 0 0 1 3.11-28.21A103.21 103.21 0 0 0 826 324a105.4 105.4 0 0 0 9-20.87 24 24 0 0 1 22.87-16.75H896a8.1 8.1 0 0 0 8-8z m-204 68.75A72 72 0 1 1 798.34 308 72.07 72.07 0 0 1 700 334.34z m48-83.12a24 24 0 1 0 8.78 32.78 24 24 0 0 0-8.78-32.78z"  horiz-adv-x="1024" />

    
    <glyph glyph-name="yonghu" unicode="&#58931;" d="M703.400215-99.074204c-3.51915 0-7.078209 0.991584-10.240225 3.066849-30.28884 19.875676-80.136132 25.263383-97.079012 25.678846l-22.119787 0-35.287691-0.271176c-0.048095 0-0.095167 0-0.143263 0L92.740194-70.599685c-10.326183 0-18.696828 8.370645-18.696828 18.696828l0 22.467711c-0.318248 6.266727-0.910743 40.603767 21.004383 78.307484 13.716396 23.598464 33.431414 43.86095 58.598606 60.225663 30.493501 19.828604 69.116147 33.909297 114.796536 41.84913 0.233314 0.039909 0.466628 0.075725 0.700965 0.107447 0.346901 0.047072 35.499515 4.858658 71.208808 14.273075 61.894675 16.317641 67.307965 30.743188 67.345828 30.884404 0.364297 1.430582 0.89437 2.803859 1.572822 4.095271 0.50756 2.699482 1.76418 12.858866-0.63752 40.079834-6.100952 69.136613-42.120306 109.995183-71.061452 142.825916-9.127891 10.354835-17.749246 20.133549-24.387433 29.722952-28.640294 41.37227-31.296797 88.416725-31.396057 90.39887-0.01535 0.311085-0.022513 0.62217-0.022513 0.933255 0 18.779715 9.363252 27.418466 17.624403 35.041074l0.433882 0.401136c0.271176 0.25071 0.442068 0.436952 0.542352 0.556679 0.093121 1.340531-0.566912 4.743024-1.013073 7.04137-0.169869 0.873903-0.339738 1.750877-0.50142 2.632967-7.179516 38.981826-7.670703 99.19214-1.175779 137.837298 2.409886 50.813293 46.224788 89.711208 48.105624 91.356684 0.071631 0.062422 0.143263 0.12382 0.214894 0.185218 6.290263 5.338588 12.671601 11.169387 16.727986 17.636682 0.487094 0.775666 0.827855 1.37737 1.066285 1.836835-0.304945 0.786922-0.741897 1.793856-1.094938 2.608407-2.436492 5.618974-6.118348 14.109346-4.02364 25.02393 1.263783 6.589069 6.078439 18.362206 24.118304 23.173792 7.261381 1.937119 15.022135 2.333138 20.689205 2.62171l1.122567 0.058328c22.38994 1.178849 46.272883 2.176572 70.435189 0.324388 174.730557-13.396101 234.920404-78.686107 237.396805-81.459267 0.140193-0.155543 0.276293-0.314155 0.409322-0.474814 13.986549-16.756639 24.347524-37.635155 30.7964-62.055334 2.01489-7.619538 3.309372-14.016225 4.062526-20.072151 6.102998-35.464723 5.084808-71.904657 3.78214-96.269577-0.732687-13.675464-2.257413-28.030403-4.800329-45.175899-0.691755-4.656043 0.068562-5.564739 0.355087-5.906523 0.75827-0.906649 1.686409-1.892093 2.667759-2.934842 3.862981-4.099365 9.152451-9.713222 11.964496-18.721387 1.410116-4.502547 2.069125-9.360182 2.069125-15.267728 0-0.311085-0.008186-0.62217-0.022513-0.933255-0.099261-1.982144-2.755764-49.0266-31.395034-90.397846-6.639211-9.590426-15.259542-19.36914-24.387433-29.722952-28.942169-32.829709-64.960501-73.689303-71.061452-142.827963-2.4017-27.220968-1.14508-37.379329-0.63752-40.079834 0.678452-1.291412 1.208525-2.664689 1.572822-4.094248 0.036839-0.141216 5.471618-14.613836 67.648726-30.964222 35.7052-9.388834 70.557986-14.146185 70.90591-14.193257 0.303922-0.040932 0.606821-0.090051 0.908696-0.145309 46.095851-8.549723 84.956927-22.991644 115.505687-42.923602 25.252127-16.476253 44.930305-36.7019 58.489112-60.114123 21.50171-37.128619 20.626783-70.714552 20.195971-77.443813l0-22.332634c0-10.326183-8.370645-18.696828-18.696828-18.696828L775.884063-70.602755c-10.326183 0-18.696828 8.370645-18.696828 18.696828s8.370645 18.696828 18.696828 18.696828l158.188812 0L934.072875-28.897911c0 0.686638 0.00921 1.106194 0.081864 1.769296 0.104377 1.508353 1.627057 28.332279-16.349363 58.130955-10.82044 17.937534-26.589588 33.609469-46.870494 46.580898-26.100448 16.693194-59.762105 28.967752-100.05274 36.482913-4.63967 0.642636-39.012526 5.564739-75.080999 15.059997-70.761624 18.629289-87.964424 39.353286-93.189426 54.395888-4.004197 7.765871-6.245238 23.195282-2.984984 60.153008 7.18054 81.369216 49.41955 129.282458 80.260975 164.268274 8.747221 9.921977 16.301268 18.491143 21.693068 26.279526 21.120017 30.510898 24.437575 66.300009 24.765033 70.606081-0.032746 2.252297-0.260943 3.223415-0.36225 3.549849-0.248663 0.798179-1.89721 2.547009-3.490497 4.238534-1.25048 1.327228-2.667759 2.832512-4.136204 4.587482-7.950066 9.504468-10.782577 21.079084-8.66024 35.384905 2.367931 15.960507 3.781116 29.206182 4.449335 41.684378 1.951445 36.502355 0.913812 63.747883-3.363607 88.341001-0.057305 0.326435-0.105401 0.654916-0.145309 0.983397-0.531096 4.438079-1.530866 9.354042-3.14769 15.46932-4.986571 18.884093-12.726859 34.770921-23.006993 47.232744-1.714038 1.747807-15.385409 15.125489-45.883003 29.67588-54.882981 26.183336-120.791064 35.849486-166.417217 39.34817-21.934568 1.681292-44.442188 0.732687-65.614393-0.382717l-1.178849-0.060375c-1.766226-0.090051-4.735861-0.2415-7.55814-0.525979 2.447748-5.841032 5.453199-14.632255 2.296299-25.136493-1.184989-3.939729-3.003404-7.792477-5.723352-12.129248-6.732331-10.733459-15.923668-19.23611-24.054859-26.145473-1.597381-1.441838-34.223452-31.356149-35.351136-65.738213-0.028653-0.86981-0.11768-1.736551-0.267083-2.594081-5.972015-34.304294-5.568832-90.780563 0.898463-125.894292 0.140193-0.765433 0.288572-1.52575 0.435928-2.282996 1.980097-10.205433 5.294586-27.284413-10.879792-42.202171l-0.434905-0.402159c-2.086521-1.924839-4.943592-4.560876-5.41636-5.468548l0 0c0.00307 0-0.13303-0.426719-0.164752-1.584078 0.328481-4.295839 3.654226-40.060391 24.76401-70.554916 5.3918-7.788383 12.945847-16.356526 21.693068-26.279526 30.841426-34.984792 73.079412-82.899058 80.259952-164.266227 3.260254-36.95875 1.019213-52.388161-2.984984-60.154032-5.226025-15.042601-22.427802-35.766598-93.189426-54.395888-36.365232-9.574053-71.006194-14.497179-75.18947-15.074324-39.83424-6.958482-73.196069-18.883069-99.160417-35.44528-20.185738-12.876262-35.971259-28.599362-46.919613-46.732347-18.282389-30.281677-17.133216-57.860802-17.055444-59.33641 0.050142-0.543376 0.054235-0.867764 0.054235-1.433652l0-4.309142 427.01135 0 35.287691 0.271176c0.047072 0 0.095167 0 0.143263 0l22.423709 0c0.141216 0 0.280386-0.001023 0.421602-0.005117 2.895957-0.064468 71.446215-1.943258 116.949572-31.803333 8.633634-5.665023 11.039427-17.254989 5.374404-25.888624C715.458855-96.104569 709.488887-99.074204 703.400215-99.074204zM631.466905 206.1238c0.454348-0.36839 0.890276-0.757247 1.305739-1.164522C632.378671 205.346087 631.943766 205.73699 631.466905 206.1238zM414.041968 206.1238c-0.471744-0.382717-0.901533-0.768503-1.292436-1.152243C413.160901 205.373717 413.592736 205.75848 414.041968 206.1238z"  horiz-adv-x="1024" />

    
    <glyph glyph-name="noread" unicode="&#58919;" d="M884.364 721.091l-744.727 0c-51.433 0-93.091-41.705-93.091-93.091l0-558.545c0-51.433 41.658-93.091 93.091-93.091l744.727 0c51.433 0 93.091 41.658 93.091 93.091l0 558.545c0 51.386-41.658 93.091-93.091 93.091zM930.909 69.455c0-25.693-20.852-46.545-46.545-46.545l-744.727 0c-25.693 0-46.545 20.852-46.545 46.545l0 558.545c0 25.693 20.852 46.545 46.545 46.545l744.727 0c25.693 0 46.545-20.852 46.545-46.545l0-558.545zM313.577 264.713l-148.108-148.108c-9.076-9.076-9.076-23.831 0-32.908 9.076-9.076 23.831-9.076 32.908 0l148.108 148.108c9.076 9.076 9.076 23.831 0 32.908-9.076 9.076-23.785 9.076-32.908 0zM544.908 326.153c-18.199-18.199-47.663-18.199-65.815 0l-278.575 278.575-65.862 0 344.436-344.436c18.199-18.153 47.663-18.153 65.815 0l344.436 344.436-65.815 0-278.621-278.575zM710.423 264.713c-9.076 9.076-23.831 9.076-32.908 0-9.076-9.076-9.076-23.831 0-32.908l148.108-148.108c9.076-9.076 23.831-9.076 32.908 0 9.076 9.076 9.076 23.831 0 32.908l-148.108 148.108z"  horiz-adv-x="1024" />

    
    <glyph glyph-name="ketuozhuai" unicode="&#58903;" d="M896 352 128 352C110.32 352 96 366.32 96 384 96 401.68 110.32 416 128 416L896 416C913.68 416 928 401.68 928 384 928 366.32 913.68 352 896 352ZM896 672 128 672C110.32 672 96 686.32 96 704 96 721.68 110.32 736 128 736L896 736C913.68 736 928 721.68 928 704 928 686.32 913.68 672 896 672ZM128 96 896 96C913.68 96 928 81.68 928 64 928 46.32 913.68 32 896 32L128 32C110.32 32 96 46.32 96 64 96 81.68 110.32 96 128 96Z"  horiz-adv-x="1024" />

    
    <glyph glyph-name="dashijian" unicode="&#58912;" d="M782.853801 16.847969 325.704037 16.847969c-8.901741 0-16.161075 7.218402-16.161075 16.169261 0 8.901741 7.259334 16.124236 16.161075 16.124236L782.853801 49.141466c10.688433 0 19.367093 8.682753 19.367093 19.335371L802.220894 699.081095c0 10.633175-8.67866 19.302625-19.367093 19.302625L325.704037 718.38372c-10.641361 0-19.323091-8.66945-19.323091-19.302625l0-567.5512c0-8.92937-7.190773-16.152888-16.141632-16.152888-8.901741 0-16.156982 7.223518-16.156982 16.152888L274.082332 699.081095c0 28.461215 23.160489 51.609425 51.621704 51.609425L782.853801 750.69052c28.520567 0 51.681056-23.14821 51.681056-51.609425l0-630.604258C834.534857 40.012551 811.374368 16.847969 782.853801 16.847969L782.853801 16.847969 782.853801 16.847969zM782.853801 16.847969M520.287757 453.843718 380.530736 453.843718c-8.897647 0-16.161075 7.230682-16.161075 16.148795 0 8.933463 7.263427 16.156982 16.161075 16.156982l139.757021 0c8.966209 0 16.165168-7.223518 16.165168-16.156982C536.452925 461.0744 529.253966 453.843718 520.287757 453.843718L520.287757 453.843718 520.287757 453.843718zM520.287757 453.843718M520.287757 370.400261 380.530736 370.400261c-8.897647 0-16.161075 7.207146-16.161075 16.144702 0 8.93858 7.263427 16.156982 16.161075 16.156982l139.757021 0c8.966209 0 16.165168-7.222495 16.165168-16.156982C536.452925 377.607406 529.253966 370.400261 520.287757 370.400261L520.287757 370.400261 520.287757 370.400261zM520.287757 370.400261M520.287757 286.94043 380.530736 286.94043c-8.897647 0-16.161075 7.223518-16.161075 16.156982 0 8.93858 7.263427 16.156982 16.161075 16.156982l139.757021 0c8.966209 0 16.165168-7.218402 16.165168-16.156982C536.452925 294.163949 529.253966 286.94043 520.287757 286.94043L520.287757 286.94043 520.287757 286.94043zM520.287757 286.94043M520.287757 203.49288 380.530736 203.49288c-8.897647 0-16.161075 7.223518-16.161075 16.161075 0 8.934486 7.263427 16.156982 16.161075 16.156982l139.757021 0c8.966209 0 16.165168-7.222495 16.165168-16.156982C536.452925 210.716398 529.253966 203.49288 520.287757 203.49288L520.287757 203.49288 520.287757 203.49288zM520.287757 203.49288M520.287757 120.042259 380.530736 120.042259c-8.897647 0-16.161075 7.226588-16.161075 16.164145 0 8.934486 7.263427 16.137539 16.161075 16.137539l139.757021 0c8.966209 0 16.165168-7.203052 16.165168-16.137539C536.452925 127.268848 529.253966 120.042259 520.287757 120.042259L520.287757 120.042259 520.287757 120.042259zM520.287757 120.042259M719.93275 453.843718 580.111261 453.843718c-8.882298 0-16.156982 7.230682-16.156982 16.148795 0 8.933463 7.274684 16.156982 16.156982 16.156982l139.821489 0c8.969279 0 16.156982-7.223518 16.156982-16.156982C736.089731 461.0744 728.902028 453.843718 719.93275 453.843718L719.93275 453.843718 719.93275 453.843718zM719.93275 453.843718M719.93275 370.400261 580.111261 370.400261c-8.882298 0-16.156982 7.207146-16.156982 16.144702 0 8.93858 7.274684 16.156982 16.156982 16.156982l139.821489 0c8.969279 0 16.156982-7.222495 16.156982-16.156982C736.089731 377.607406 728.902028 370.400261 719.93275 370.400261L719.93275 370.400261 719.93275 370.400261zM719.93275 370.400261M719.93275 286.94043 580.111261 286.94043c-8.882298 0-16.156982 7.223518-16.156982 16.156982 0 8.93858 7.274684 16.156982 16.156982 16.156982l139.821489 0c8.969279 0 16.156982-7.218402 16.156982-16.156982C736.089731 294.163949 728.902028 286.94043 719.93275 286.94043L719.93275 286.94043 719.93275 286.94043zM719.93275 286.94043M719.93275 203.49288 580.111261 203.49288c-8.882298 0-16.156982 7.223518-16.156982 16.161075 0 8.934486 7.274684 16.156982 16.156982 16.156982l139.821489 0c8.969279 0 16.156982-7.222495 16.156982-16.156982C736.089731 210.716398 728.902028 203.49288 719.93275 203.49288L719.93275 203.49288 719.93275 203.49288zM719.93275 203.49288M719.93275 120.042259 580.111261 120.042259c-8.882298 0-16.156982 7.226588-16.156982 16.164145 0 8.934486 7.274684 16.137539 16.156982 16.137539l139.821489 0c8.969279 0 16.156982-7.203052 16.156982-16.137539C736.089731 127.268848 728.902028 120.042259 719.93275 120.042259L719.93275 120.042259 719.93275 120.042259zM719.93275 120.042259M508.935198 16.847969 236.972133 16.847969c-28.453029 0-51.601238 23.164582-51.601238 51.628868L185.370895 600.543871c0 14.522762 0.874927 29.535687 11.100826 39.761586 11.900028 11.895935 28.588105 11.895935 62.405305 11.835559l18.647709 0.027629 0.079818 0c8.901741 0 16.1007-7.15905 16.161075-16.064884 0.063445-8.905834-7.131421-16.188704-16.033162-16.236799l-18.922978-0.031722c-17.704221 0.171915-36.031635 0.031722-39.621393-2.474354-0.159636-0.36839-1.515516-3.457752-1.515516-16.821107l0-532.062941c0-10.652618 8.682753-19.335371 19.299555-19.335371L508.935198 49.141466c8.962116 0 16.156982-7.222495 16.156982-16.124236C525.09218 24.066371 517.897314 16.847969 508.935198 16.847969L508.935198 16.847969 508.935198 16.847969zM508.935198 16.847969M719.93275 543.003364 382.541533 543.003364c-8.886391 0-16.145725 7.230682-16.145725 16.144702l0 88.092337c0 8.937556 7.259334 16.156982 16.145725 16.156982l337.391217 0c8.969279 0 16.156982-7.219425 16.156982-16.156982l0-88.092337C736.089731 550.234045 728.902028 543.003364 719.93275 543.003364L719.93275 543.003364 719.93275 543.003364zM398.698514 575.305047l305.092603 0 0 55.790654L398.698514 631.095701 398.698514 575.305047 398.698514 575.305047 398.698514 575.305047zM398.698514 575.305047"  horiz-adv-x="1024" />

    
    <glyph glyph-name="liebiao" unicode="&#58900;" d="M384 576l512 0c38.4 0 64 25.6 64 64 0 38.4-25.6 64-64 64L384 704C345.6 704 320 678.4 320 640 320 601.6 345.6 576 384 576zM896 448 384 448C345.6 448 320 422.4 320 384c0-38.4 25.6-64 64-64l512 0c38.4 0 64 25.6 64 64C960 422.4 934.4 448 896 448zM896 192 384 192c-38.4 0-64-25.6-64-64 0-38.4 25.6-64 64-64l512 0c38.4 0 64 25.6 64 64C960 166.4 934.4 192 896 192zM128 704C89.6 704 64 678.4 64 640c0-38.4 25.6-64 64-64s64 25.6 64 64C192 678.4 166.4 704 128 704zM128 448C89.6 448 64 422.4 64 384c0-38.4 25.6-64 64-64s64 25.6 64 64C192 422.4 166.4 448 128 448zM128 192c-38.4 0-64-25.6-64-64 0-38.4 25.6-64 64-64s64 25.6 64 64C192 166.4 166.4 192 128 192z"  horiz-adv-x="1024" />

    
    <glyph glyph-name="dian" unicode="&#59020;" d="M154.582339 384a11.242 11.293 0 1 0 719.443035 0 11.242 11.293 0 1 0-719.443035 0ZM514.303856 896C232.817449 896 4.607712 666.766327 4.607712 384s228.209737-512 509.696144-512 509.696144 229.233673 509.696144 512S795.790263 896 514.303856 896zM514.303856-90.978314c-261.135679 0-472.834448 212.658709-472.834448 474.978314 0 262.319605 211.698769 474.978314 472.834448 474.978314S987.138304 646.319605 987.138304 384C987.138304 121.680395 775.439535-90.978314 514.303856-90.978314z"  horiz-adv-x="1024" />

    
    <glyph glyph-name="xiaomishu" unicode="&#58906;" d="M431.266772 214.030779c-8.78218-22.513273-30.567465-38.62065-56.33101-38.62065-33.67073 0-60.938584 27.170185-60.938584 60.696928 0 33.429074 27.267854 60.599259 60.938584 60.599259 25.763546 0 47.549837-16.010714 56.33101-38.62065l-44.200888-21.978609L431.266772 214.030779 431.266772 214.030779zM715.197418 213.836448c-8.781173-22.608929-30.615796-38.669988-56.330004-38.669988-33.720068 0-60.939591 27.170185-60.939591 60.649604 0 33.477405 27.267854 60.64759 60.939591 60.64759 25.715215 0 47.54883-16.011721 56.330004-38.62065l-44.24922-22.02694L715.197418 213.836448 715.197418 213.836448zM964.728339 219.270686c-6.986878-25.811877-23.919912-46.287185-45.607527-58.5623-16.545378-13.243753-37.602674-21.152951-60.454265-21.152951-1.163976 0-2.327952 0.096662-3.444604 0.340332-36.38936-159.432518-169.281005-267.871601-342.396284-267.871601-173.500922 0-306.345243 108.148089-342.928934 267.532275-18.338666 0.096662-35.467039 5.336569-50.022783 14.313081-28.722824 10.286489-52.108073 33.9144-60.599259 65.403178-11.401127 42.357255 4.220924 72.584387 24.161568 92.573363-0.387656 11.353802-0.484319 22.998599-0.241656 35.370377C80.573634 478.311775 119.872934 588.933817 196.873584 667.194099c36.679347 37.309666 81.317229 65.936835 132.455658 85.440484C337.285764 823.666331 414.720388 879.560347 508.799065 879.560347c94.077671 0 171.513302-55.894016 179.470831-126.924757 51.137421-19.504656 95.775304-48.130818 132.502982-85.440484 76.902981-78.260282 116.202281-189.076655 113.630659-320.609992 0.194332-9.7045 0.146-19.406987-0.096662-28.917156C957.014479 297.919631 977.294448 265.994865 964.728339 219.270686L964.728339 219.270686zM508.799065 847.19758c-70.061096 0-128.914391-35.417701-143.906122-82.7722 43.714556 12.422123 91.506049 18.776668 142.644477 18.776668l2.473953 0c51.187766 0 98.977245-6.355552 142.693815-18.776668C637.712449 811.779878 578.860162 847.19758 508.799065 847.19758L508.799065 847.19758zM882.828114 346.63143c2.426629 118.191915-31.779772 216.39284-98.928914 284.610303-64.722514 65.839165-159.432518 100.628561-273.88682 100.628561l-1.309977-0.049338-1.164983 0.049338c-114.407985 0-209.114968-34.788389-273.839496-100.628561-67.150149-68.217463-101.354536-166.418389-98.928914-283.979984-0.048331-1.357301-0.048331-2.619953-0.048331-3.928923 24.354893 6.40489 42.453917-12.03346 45.072864-13.876086 91.215055 30.178801 131.049019 126.486755 131.436675 127.506745 3.348949 8.297861 12.759435 12.323447 21.106634 9.024843 8.344179-3.347942 12.420109-12.71211 9.072167-21.007958-1.842627-4.658925-44.491882-108.634422-147.156395-144.780111-1.309977-21.153958-2.522284-43.181906-2.280628-51.041766l0.339325-18.291342c0-192.376266 131.533337-326.481225 319.884018-326.481225 0.241656 0 0.969645 0 1.2113-0.049338 146.818077 0.049338 259.235421 82.046225 301.300675 209.648625-5.289245-6.16122-10.674145-12.129115-16.351046-17.853341-35.272708-36.049027-77.435631-64.093201-125.275455-83.306864-33.477405-13.48843-69.187107-22.415604-106.643781-26.685866-4.1736-16.497047-25.618552-29.111488-51.673092-29.111488-29.06215 0-52.593398 15.623058-52.593398 34.933382 0 19.260987 23.530242 34.933382 52.593398 34.933382 20.475308 0 38.136331-7.85986 46.77251-19.214669 116.152943 12.663779 209.939619 71.614743 266.41663 161.518814 3.104272 19.698988 4.70625 40.173289 4.70625 61.375579 0 0 0 0 0.095655 2.862616-0.533657 0.534664-1.066307 1.066307-1.503301 1.650309-43.957219 56.815329-108.487414 70.448753-176.802546 84.859503-34.011062 7.180203-69.236445 14.603068-103.586833 27.606172C426.268522 394.616248 360.186693 503.153001 357.42074 507.762588c-4.560249 7.666535-2.087303 17.612692 5.627563 22.172941 7.71386 4.60858 17.660016 2.086296 22.269603-5.580239 0.631326-1.018983 63.366219-103.586833 177.044202-146.526076 32.023442-12.129115 65.985166-19.261994 98.833259-26.20054 62.783224-13.245767 127.458414-26.879191 176.994864-75.591997 0.534664 0.533657 1.068321 1.066307 1.650309 1.551633 0.921313 15.623058 1.891965 28.092505 2.717623 32.798755 0.095655 0.631326 0.241656 1.261645 0.387656 1.892972-0.340332 1.2113 5.580239 31.58544 39.930626 31.58544C882.877452 344.787797 882.828114 345.70911 882.828114 346.63143L882.828114 346.63143z"  horiz-adv-x="1024" />

    
    <glyph glyph-name="feiji" unicode="&#59054;" d="M933.546667 697.173333c-9.045333 13.653333-21.504 9.045333-22.528 8.874667L102.912 505.002667c-7.509333-1.877333-13.312-7.68-15.36-15.018667-2.048-7.509333 0-15.36 5.461333-20.821333l152.405333-151.552 43.690667-238.933333c0-0.512 1.706667-14.165333 16.042667-16.896 11.946667-2.218667 17.92 3.754667 18.261333 3.925333l97.450667 77.482667 76.288-75.946667c4.608-4.437333 10.752-6.826667 17.066667-6.144 6.314667 0.682667 11.946667 3.925333 15.701333 9.386667l403.968 602.794667C934.4 674.133333 941.226667 685.397333 933.546667 697.173333zM150.016 472.746667l611.84 152.064L268.970667 354.474667 150.016 472.746667zM314.538667 177.322667l-25.429333 139.434667 348.16 190.976L353.621333 300.544c0 0-3.754667-3.072-5.290667-5.12-1.365333-1.877333-2.730667-6.314667-2.730667-6.314667L314.538667 177.322667zM370.858667 220.16l30.890667-37.717333-53.248-42.325333L370.858667 220.16zM509.952 117.418667l-125.098667 153.088 0 0L831.146667 596.650667 509.952 117.418667z"  horiz-adv-x="1024" />

    
    <glyph glyph-name="jinggao" unicode="&#59050;" d="M1011.982 53.482 606.673 755.435c-49.575 85.822-130.595 85.822-180.157 0L21.205 53.482c-49.562-85.91-9.015-155.99 90.04-155.99l810.693 0C1020.997-102.507 1061.502-32.423 1011.982 53.482zM460.924 556.263c14.565 15.747 33.082 23.622 55.665 23.622 22.595 0 41.095-7.792 55.675-23.307 14.485-15.55 21.725-34.997 21.725-58.382 0-20.12-30.235-168.07-40.32-275.704l-72.825 0c-8.845 107.635-41.652 255.584-41.652 275.704C439.194 521.226 446.446 540.593 460.924 556.263zM571.244 44.462c-15.32-14.92-33.55-22.355-54.65-22.355-21.095 0-39.33 7.435-54.647 22.355-15.275 14.885-22.867 32.915-22.867 54.09 0 21.065 7.592 39.29 22.867 54.565 15.317 15.28 33.552 22.92 54.647 22.92 21.1 0 39.33-7.64 54.65-22.92 15.265-15.275 22.875-33.5 22.875-54.565C594.119 77.377 586.509 59.347 571.244 44.462z"  horiz-adv-x="1034" />

    
    <glyph glyph-name="pinzhibaozhang" unicode="&#58981;" d="M995.838613 563.500187c-0.740874 1.705851-1.571798 3.385097-2.51324 4.987594L859.062484 795.30667 753.951541 563.499164l241.886049 0L995.83759 563.500187 995.838613 563.500187M331.475484 563.500187l358.64324 0L510.807848 818.972673 331.475484 563.500187 331.475484 563.500187M473.965755 830.336488 220.781382 830.336488c-9.888208 0-20.535709-3.590781-29.592992-9.432837l108.382453-239.024885L473.965755 830.336488 473.965755 830.336488 473.965755 830.336488M831.77807 823.865099c-7.820106 4.073782-16.415878 6.471388-24.492834 6.471388L547.650965 830.336488l174.394912-248.455675L831.77807 823.865099 831.77807 823.865099 831.77807 823.865099M321.289494 526.657071 510.307452-62.186062c0.445138-0.058328 0.887206-0.11461 1.332345-0.149403l188.722222 588.995605L321.289494 526.66014 321.289494 526.657071 321.289494 526.657071M165.343769 789.164786 34.722826 568.502108c-1.017166-1.709945-1.995447-3.387144-2.938935-4.987594l235.877195 0L165.343769 789.164786 165.343769 789.164786 165.343769 789.164786M27.403117 526.657071l1.036609-1.839905 1.939165 0c2.198062-2.711761 5.195326-6.415107 8.798387-10.940167l414.802284-520.43102L282.820344 526.67856l-255.417227 0L27.403117 526.657071 27.403117 526.657071M996.596883 526.657071 738.809679 526.657071 563.378158-20.845515l426.177356 534.705118C992.56608 517.655046 994.912521 522.004097 996.596883 526.657071L996.596883 526.657071 996.596883 526.657071"  horiz-adv-x="1024" />

    
    <glyph glyph-name="baobiao" unicode="&#58964;" d="M832.012919 801.929508c-14.678304-3.25002-29.331026-6.622838-44.008306-9.880021-27.132964-6.021134-54.271044-12.017708-81.418334-17.972327-15.370059-3.373841-30.78105-6.573719-46.1419-9.985422-13.364379-2.968611-26.680663-6.126534-40.693818-9.358135 22.417569-21.664416 44.360324-42.872436 66.441225-64.212464-14.373359-15.196097-28.264741-29.904077-42.182728-44.588521-7.336082-7.741311-14.69263-15.465227-22.077831-23.160489-17.740036-18.476817-35.46063-36.973076-53.270251-55.384401-14.490016-14.979156-29.098735-29.843702-43.652196-44.760436-0.623193-0.63752-1.216711-1.301645-1.828648-1.948375-8.165983-8.616238-16.334014-17.2335-24.725124-26.087145-31.022551 28.303626-61.489446 56.100716-92.359524 84.268242-11.526521-12.047384-23.045879-24.166399-34.651194-36.199457-12.237719-12.68695-24.558325-25.294083-36.842093-37.938054-11.910261-12.261255-23.813359-24.523533-35.723619-36.784788-12.407588-12.769838-24.823362-25.53456-37.225833-38.310537-11.535731-11.876492-23.010063-23.810289-34.599006-35.635615-21.084201-21.516036-42.259476-42.942021-63.335491-64.46829-9.212826-9.403161-18.283412-18.945491-27.375487-28.464285-0.673335-0.704035-1.020236-1.721201-1.485841-2.536776 11.886725-11.390421 23.570835-22.520923 35.177174-33.731242 5.109368-4.934382 5.107321-5.074575 10.219759 0.207731 6.547113 6.767124 12.93459 13.688767 19.456121 20.478404 10.109242 10.526751 20.271696 20.998243 30.416753 31.490202 10.764158 11.130502 21.540595 22.248723 32.302707 33.383318 9.893324 10.237155 19.766183 20.491707 29.661553 30.726815 10.762111 11.132548 21.4925 22.298865 32.317033 33.373085 18.812461 19.240203 37.686321 38.422078 56.535621 57.629535 0.62524 0.638543 1.257643 1.2689 1.871627 1.915629 8.495488 8.986675 16.989953 17.97335 25.341155 26.809599 31.712259-28.323069 62.815651-56.105832 94.433766-84.342943 8.413624 8.945743 16.382109 17.514909 24.458041 25.986861 15.950274 16.733103 31.956829 33.410947 47.941895 50.106188 16.234753 16.95516 32.472576 33.905204 48.707328 50.859341 15.988136 16.694217 31.918967 33.444716 47.974641 50.075489 14.224979 14.736633 28.630061 29.303396 42.86732 44.030819 4.26821 4.412496 8.238638 9.109472 12.56927 13.923104 24.399713-23.01825 48.229444-45.49824 72.64246-68.529793 1.336438 7.110955 2.520403 13.071713 3.564175 19.058055 2.707668 15.528672 5.326309 31.072693 8.033977 46.601364 2.285043 13.107529 4.691859 26.192545 6.968715 39.300075 2.667759 15.359826 5.230118 30.737048 7.880481 46.098921 2.709715 15.699564 5.395894 31.403221 8.245801 47.079248 1.25969 6.933923 2.888793 13.802354 4.352121 20.700461 0 0.357134 0 0.714268 0 1.071402C836.532863 802.535305 834.231447 802.420695 832.012919 801.929508zM712.8264-0.412137c32.260751 0 64.178695 0 96.495728 0 0 165.071569 0 329.72256 0 494.169913-32.485879 0-64.530712 0-96.495728 0C712.8264 328.828446 712.8264 164.305369 712.8264-0.412137zM538.228873-0.260687c32.42755 0 64.47136 0 96.704482 0 0 127.959324 0 255.576863 0 383.626237-32.556487 0-64.726164 0-96.704482 0C538.228873 255.184169 538.228873 127.44281 538.228873-0.260687zM358.281501-0.216685c32.473599 0 64.514339 0 96.517217 0 0 102.062514 0 203.734124 0 305.606303-32.249495 0-64.163345 0-96.517217 0C358.281501 203.205331 358.281501 101.410923 358.281501-0.216685zM197.580472-0.212592c32.477692 0 64.520479 0 96.504938 0 0 69.924559 0 139.457192 0 209.1863-32.255635 0-64.168462 0-96.504938 0C197.580472 138.913049 197.580472 69.254549 197.580472-0.212592z"  horiz-adv-x="1024" />

    
    <glyph glyph-name="chakan" unicode="&#58899;" d="M982.768705-72.909964 944.769757-110.650982C929.820737-125.572452 905.514345-125.572452 890.504607-110.650982L737.317985 41.555909C700.450514 20.16879 657.553106 7.856473 611.702186 7.856473 476.353826 7.856473 359.281918 122.509808 355.387549 256.437377L161.691473 256.437377 161.691473 320.105882 361.856916 320.105882C367.257943 342.86294 376.175876 364.00249 387.356649 383.774354L161.691473 383.774354 161.691473 447.442856 437.602267 447.442856C437.099705 446.945341 436.848367 446.199014 436.408925 445.7015 480.750904 485.991557 539.222597 511.110201 604.039605 511.110201 741.837765 511.110201 861.172402 392.540257 861.172402 255.690989 861.172402 208.560371 847.982522 164.53992 824.995711 126.985227L977.36531-24.350364C992.377414-39.273019 997.778443-58.048722 982.768705-72.909964L982.768705-72.909964ZM604.040828 434.882915C508.700523 434.882915 431.384302 358.033197 431.384302 263.2767 431.384302 168.519071 516.363136 84.083593 611.703442 84.083593 707.109144 84.083593 784.423084 160.934551 784.423084 255.690935 784.423084 350.448678 699.444251 434.882915 604.040828 434.882915L604.040828 434.882915ZM161.691455 702.116813 611.892763 702.116813 611.892763 638.448311 161.691473 638.448311 161.691473 702.116858 161.691455 702.116813ZM611.891658 559.982237C573.579507 549.162576 537.652901 533.245965 505.873142 511.111389L161.691473 511.111389 161.691473 574.779891 611.892779 574.779891 611.892779 559.982187 611.891658 559.982237ZM676.207244 571.609468 676.207244 765.78536 97.375832 765.78536 97.375832 129.100342 369.64464 129.100342C383.274076 81.660793 406.51211 38.696728 437.602231 1.764524L97.375832 1.764524C61.826688 1.764524 33.061387 30.302262 33.061387 65.430738L33.061387 829.453861C33.061387 864.645952 61.826802 893.122336 97.375832 893.122336L676.206085 893.122336C711.690854 893.122336 740.519386 864.645839 740.519386 829.453861L740.519386 571.609505C729.779313 572.542047 719.353581 574.7799 708.361022 574.7799 697.308791 574.779864 686.94618 572.540994 676.207244 571.609468L676.207244 571.609468Z"  horiz-adv-x="1024" />

    
    <glyph glyph-name="mima" unicode="&#58883;" d="M512 325.504a58.496 58.496 0 0 1-38.976-102.08v-53.888a38.976 38.976 0 1 1 77.952 0v53.888a58.304 58.304 0 0 1 19.456 43.584A58.368 58.368 0 0 1 512 325.504z m272.896 175.424h-38.976V598.4a233.856 233.856 0 0 1-467.712 0v-97.408h-39.04c-53.824 0-97.408-43.648-97.408-97.408v-370.304c0-53.824 43.648-97.408 97.408-97.408h545.728c53.76 0 97.344 43.648 97.344 97.408V403.52c0 53.824-43.584 97.408-97.344 97.408zM512 793.28a194.88 194.88 0 0 0 194.88-194.88v-97.408h-389.76V598.4A194.944 194.944 0 0 0 512 793.28z m331.392-760.064c0-32.32-26.24-58.432-58.496-58.432H239.168a58.496 58.496 0 0 0-58.496 58.432V403.52c0 32.256 26.176 58.496 58.496 58.496h545.728c32.256 0 58.496-26.176 58.496-58.496v-370.304z m0 0"  horiz-adv-x="1024" />

    
    <glyph glyph-name="xunjianguanli" unicode="&#58908;" d="M257.996982 574.878328c3.843538-14.687514 8.105608-30.629601 12.898775-47.829332 4.756327-17.235546 10.197246-34.739199 16.285918-52.661384 6.049786-17.845437 12.898775-35.538401 20.546965-53.117778 7.686053-17.502629 15.943111-33.939997 24.88476-49.235354l0-376.923582-239.143589-59.357899L93.469811 533.746536 257.996982 574.878328 257.996982 574.878328M329.721537 607.410256c0 3.158946-0.152473 6.203282-0.494257 9.094122-0.303922 2.854001-0.456395 5.859451-0.456395 9.05626 0 28.689413 5.555529 55.477522 16.741289 80.361259 11.111059 24.88476 26.292829 46.725184 45.431725 65.560158 19.139919 18.834974 41.436738 33.636075 66.968228 44.481074 25.493627 10.843976 52.927443 16.285918 82.264609 16.285918 29.336142 0 56.732096-5.440919 82.301448-16.285918 25.455765-10.843976 47.828308-25.6461 66.967204-44.481074 19.102057-18.834974 34.245965-40.675398 45.431725-65.560158 11.148921-24.846898 16.705474-51.633984 16.705474-80.361259l0-11.452843c0-3.843538-0.305969-7.687076-0.952698-11.490705-3.842515-33.82641-11.30037-66.169025-22.487154-97.103572-11.148921-30.93557-25.341155-60.728106-42.538839-89.417519-17.23657-28.689413-37.022195-56.275701-59.357899-82.757842-22.335704-26.445302-46.26879-51.824319-71.76344-76.063373-4.452405-4.452405-9.208732-6.696516-14.344706-6.696516-5.099135 0-9.893324 2.24411-14.34573 6.696516-26.178219 24.239054-50.415226 49.76952-72.713069 76.556607-22.298865 26.749224-42.084491 54.830793-59.32106 84.166935-17.23657 29.336142-31.353079 59.738569-42.502 91.320868C340.109118 540.937309 332.917322 573.583846 329.721537 607.410256L329.721537 607.410256 329.721537 607.410256M540.213575 713.570087c-12.785188 0-24.541953-2.245134-35.385928-6.696516-10.843976-4.452405-20.243043-10.692526-28.233018-18.682501-7.952112-7.953136-14.344706-17.389042-19.10001-28.233018-4.756327-10.843976-7.153934-22.296819-7.153934-34.435277s2.397606-23.591301 7.153934-34.435277c4.756327-10.882861 11.148921-20.279882 19.10001-28.233018 7.990998-7.952112 17.389042-14.192234 28.233018-18.644639 10.843976-4.452405 22.601764-6.696516 35.385928-6.696516 12.785188 0 24.733311 2.24411 35.882232 6.696516 11.148921 4.452405 20.736277 10.692526 28.689413 18.644639 7.952112 7.953136 14.344706 17.389042 19.138896 28.233018 4.79419 10.843976 7.15291 22.296819 7.15291 34.435277s-2.396583 23.591301-7.15291 34.435277c-4.79419 10.843976-11.186783 20.243043-19.138896 28.233018-7.953136 7.989975-17.540492 14.230096-28.689413 18.682501C564.946886 711.324954 552.998763 713.570087 540.213575 713.570087L540.213575 713.570087 540.213575 713.570087M391.932414 294.525176c18.49319-20.35663 36.528961-38.887682 54.031591-55.477522 17.540492-16.626679 33.332153-31.238468 47.371914-44.023656 16.551978-14.649652 32.229029-27.738761 46.839795-39.191604 7.647167 6.353708 16.284895 13.696953 25.873274 22.029736 8.256034 7.002484 17.845437 15.906272 28.689413 26.749224 10.806113 10.843976 23.248494 22.982434 37.288255 36.338626l0-305.199027-240.132102 59.357899L391.894551 294.525176 391.932414 294.525176 391.932414 294.525176M930.530189 594.016201l0-598.868463-239.181451-59.357899L691.348738 302.249091c3.842515 3.843538 7.495718 7.762801 10.996448 11.910261 3.499707 4.108574 7.190773 8.142447 10.996448 11.9471 12.785188 14.001899 24.579815 30.782074 35.385928 50.224892 10.882861 19.443841 20.585851 40.143279 29.222555 62.174038 8.636704 22.031782 16.285918 44.024679 22.982434 66.017576 6.696516 22.029736 12.593829 42.577724 17.692964 61.717643L930.530189 594.016201 930.530189 594.016201M930.530189 594.016201"  horiz-adv-x="1024" />

    
    <glyph glyph-name="gonggao" unicode="&#59000;" d="M642.744-117.924c-7.588 0-15.063 2.775-20.94 8.1L317.07 164.403h-176.23c-50.453 0-125.481 33.424-125.481 125.481V478.095c0 50.453 33.444 125.481 125.47 125.481H317L621.732 877.865c9.206 8.346 22.456 10.353 33.74 5.325a31.315 31.315 0 0 0 18.637-28.672v-941.066c0-12.37-7.219-23.655-18.565-28.683a31.639 31.639 0 0 0-12.8-2.693z m-501.913 658.75c-59.73 0-62.73-52.255-62.73-62.74v-188.212c0-59.658 52.264-62.74 62.73-62.74h188.21c7.783 0 15.248-2.878 20.952-8.1l261.376-235.131V784.077L350.075 548.925c-5.775-5.201-13.23-8.1-21.023-8.1H140.831zM799.58 572.2c-7.957 0-16.047 3.082-22.201 9.165-12.237 12.226-12.237 32.123 0 44.36l125.48 125.48c12.227 12.217 32.103 12.217 44.36 0 12.227-12.236 12.227-32.133 0-44.37l-125.47-125.47c-6.103-6.083-14.06-9.165-22.17-9.165zM987.8 352.625h-188.22c-17.245 0-31.366 14.039-31.366 31.365 0 17.316 14.121 31.365 31.365 31.365h188.222c17.377 0 31.365-14.06 31.365-31.365 0-17.326-13.988-31.365-31.365-31.365z m-62.74-345.068a31.582 31.582 0 0 0-22.2 9.165L777.38 142.202c-12.237 12.227-12.237 32.103 0 44.36 12.226 12.217 32.102 12.217 44.37 0l125.47-125.47c12.227-12.257 12.227-32.144 0-44.37-6.092-6.093-14.049-9.165-22.159-9.165z m0 0"  horiz-adv-x="1024" />

    
    <glyph glyph-name="kefu" unicode="&#58889;" d="M959.498 378.267c0 50.39-18.482 94.521-50.873 122.733-32.691 188.532-197.077 331.908-394.958 331.908-196.601 0-360.14-141.53-394.307-328.262-35.101-27.968-55.259-73.759-55.259-126.38 0-85.846 52.336-155.453 138.182-155.453 19.104 0 34.545 15.44 34.545 34.545v241.817c0 15.891-11.279 28.364-25.911 32.387 0 0-7.814 3.563-39.148-3.438-2.153-0.41-4.267-0.884-6.333-1.4 41.593 153.324 181.742 266.097 348.232 266.097 166.879 0 307.291-113.301 348.519-267.173-8.575 2.558-18.479 4.2-28.71 4.557-12.98 4.92-20.795 1.357-20.795 1.357-14.632-4.023-25.911-16.496-25.911-32.387v-241.816c0-19.104 15.441-34.545 34.547-34.545 11.762 0 22.89 1.314 33.346 3.791-13.039-52.883-36.798-93.33-60.971-122.435-17.221-20.73-34.877-35.757-48.579-45.34-6.854-4.792-12.187-7.769-16.194-9.716-2.008-0.977-3.646-1.862-4.318-2.16h-64.771c-12.442 36.073-52.031 62.614-99.319 62.614-57.235 0-103.637-38.665-103.637-86.365 0-47.697 46.4-86.362 103.637-86.362 47.288 0 86.877 26.543 99.319 62.612h68.011c11.678 0 14.646 3.108 21.591 6.479 6.942 3.369 15.104 7.987 23.75 14.033 17.29 12.098 38.157 29.73 58.294 53.979 34.098 41.051 65.992 100.768 76.879 179.99 32.79 28.364 51.142 73.5 51.142 124.333z"  horiz-adv-x="1024" />

    
    <glyph glyph-name="xunjianguiji" unicode="&#59023;" d="M517.654925 448.863522c68.837254 0 124.897433 54.210866 124.897433 120.908418 0 66.697552-56.060179 120.908418-124.897433 120.908418-68.837254 0-124.897433-54.210866-124.897432-120.908418 0-66.697552 56.044896-120.908418 124.897432-120.908418zm0 182.44012c34.647881 0 62.693254-27.86197 62.693254-62.234746 0-34.326925-28.045373-62.234746-62.693254-62.234747-34.60203 0-62.693254 27.907821-62.693253 62.234747 0 34.372776 28.091224 62.234746 62.693253 62.234746zm-120.893134-365.338746c1.803463-2.567642 3.576358-4.630925 5.028299-6.113433 42.136836-51.001313 84.60991-84.930866 86.44394-86.367523l29.589015-23.521433 29.466746 23.704836c1.83403 1.436657 44.169552 35.763582 86.22997 86.581493 1.436657 1.528358 3.270687 3.652776 5.058866 6.266268 60.140896 78.282507 134.908179 191.732537 151.811821 289.944836 3.255403 22.390448 3.347104 35.946985 3.347104 37.429493 0.565493 73.391761-28.717851 142.366567-82.409074 193.994507-51.994746 50.007881-120.801433 77.533612-193.673553 77.533612-72.597015 0-141.220299-27.525731-193.215044-77.533612-53.981612-51.903045-83.448358-121.229373-82.882866-195.156059 0-1.176836 0.091701-14.779224 3.224836-36.099821 18.141612-105.08991 102.537552-226.594388 151.97994-290.663164zm120.893134 522.988895c113.816836 0 206.985552-90.937313 206.160239-203.928836 0 0 0-10.224716-2.47594-27.174209-13.617672-79.123104-77.915701-177.136716-129.467224-244.078806-0.412657-0.794746-1.23797-1.558925-1.635343-1.971582-35.885851-43.680478-72.581731-73.223642-72.581732-73.223642s-36.711164 29.145791-72.581731 72.826269c-0.397373 0.397373-1.222687 1.207403-1.650627 1.971582-51.551522 66.529433-115.849552 164.955701-129.45194 243.712-2.47594 16.903642-2.47594 27.174209-2.47594 27.174209-0.840597 112.976239 92.343403 204.693015 206.160238 204.693015zM219.884896-97.432836 901.471522-97.432836c58.643104 0 107.229612 44.521075 107.229612 100.825791 0 56.304716-48.586507 100.810507-107.229612 100.810508L122.513194 104.203463c-22.023642 0-38.835582 15.405851-38.835582 32.98197 0 17.591403 16.81194 32.997254 38.835582 32.997254l121.718448 0a34.036537 34.036537 0 0 0 34.189373 33.914268 34.051821 34.051821 0 0 0-34.189373 33.914269L122.513194 238.011224c-58.627821 0-107.214328-44.505791-107.214328-100.825791 0-56.304716 48.586507-100.810507 107.214328-100.810508l778.958328 0c22.038925 0 38.850866-15.390567 38.850866-32.98197s-16.81194-32.98197-38.850866-32.98197L219.884896-29.589015a34.067104 34.067104 0 0 0-34.189374-33.929552A34.067104 34.067104 0 0 0 219.884896-97.432836z"  horiz-adv-x="1024" />

    
    <glyph glyph-name="yanzhengma" unicode="&#58934;" d="M512.035158-128c101.956466 34.50699 197.449829 100.585327 266.639596 196.594333 54.523271 75.553257 98.218062 169.56415 129.806988 279.706431 53.240026 185.572487 53.925595 350.894311 53.925595 357.855476 0.105472 15.791533-11.115599 28.893525-26.080932 30.44631-2.355546 0.205085-241.203216 26.286018-407.228188 153.573392a27.809505 27.809505 0 0 1-34.055804 0C329.908096 763.621014 90.175631 736.813495 87.808366 736.60841c-14.965334-1.459032-26.180545-14.654777-26.180546-30.44631 0-6.961166 0.591816-172.27713 53.931455-357.849617 31.594785-109.925477 75.184104-204.065281 129.806988-279.712291 69.189767-95.909393 164.812041-162.093202 266.668895-196.600192m391.823386 807.249108l-0.105472-1.664117c-2.84775-60.376978-13.189885-181.212969-50.585642-311.623492-65.644729-228.681322-180.199264-374.156792-340.517018-432.348152l-0.591816-0.205085-0.603536 0.205085c-159.813831 58.080028-274.274612 203.033997-340.106847 430.906698-39.165346 135.590381-48.616827 264.119983-50.972374 313.164559l-0.105472 1.658257 1.476611 0.210945c69.476886 10.699569 246.523703 46.542541 389.221738 147.959926l0.884795 0.732446 0.990267-0.732446c142.897261-101.417386 319.944078-137.260357 389.426823-148.071258l1.587943-0.193366zM675.692864 533.328311l-210.69831-227.691055-121.867275 106.761311a34.688637 34.688637 0 0 1-22.389406 8.203394 34.366361 34.366361 0 0 1-26.245-12.058989c-12.305091-14.414535-10.664412-36.335175 3.873174-48.640266l149.641622-130.539433c6.099809-5.162279 14.531726-8.203394 22.975362-8.203394 1.054722 0 2.097725 0 3.158307 0.123051a34.51285 34.51285 0 0 1 23.795701 13.348093l232.835755 256.637316a33.932753 33.932753 0 0 1 6.685766 25.541853c-1.166054 9.146784-5.976758 17.227127-13.242622 22.852311-15.363785 11.713274-37.038323 8.783491-48.523074-6.334192z"  horiz-adv-x="1024" />

    
    <glyph glyph-name="shoujihao" unicode="&#58926;" d="M271.685818 869.794909l479.232-0.139636c15.825455 0 30.626909-6.144 41.751273-17.314909 11.170909-11.170909 17.314909-25.972364 17.314909-41.751273l-0.232727-853.364364c0-32.535273-26.530909-59.019636-59.112728-59.019636l-479.232 0.139636c-32.535273 0-59.019636 26.530909-59.019636 59.066182L212.619636 810.775273c0 32.535273 26.530909 59.019636 59.066182 59.019636z m0 26.205091C224.581818 896 186.414545 857.832727 186.414545 810.775273L186.181818-42.589091c0-47.104 38.167273-85.271273 85.224727-85.271273L750.685091-128c47.104 0 85.271273 38.167273 85.271273 85.224727l0.232727 853.364364c0 47.104-38.167273 85.271273-85.271273 85.271273L271.685818 896z m22.155637-109.893818l429.986909-0.139637-0.186182-695.761454-429.986909 0.093091 0.186182 695.808z m-26.205091 26.205091l-0.186182-748.218182 482.397091-0.139636 0.186182 748.218181L267.636364 812.311273z m240.965818-806.586182a25.320727 25.320727 0 0 0 25.460363-25.460364 25.506909 25.506909 0 1 0-25.460363 25.460364z m0 26.205091a51.665455 51.665455 0 0 1 0-103.330909 51.665455 51.665455 0 0 1 0 103.330909z"  horiz-adv-x="1024" />

    
    <glyph glyph-name="gaojing" unicode="&#58890;" d="M832-20.48c0-28.16-23.04-51.2-51.2-51.2H243.2c-28.16 0-51.2 23.04-51.2 51.2s23.04 51.2 51.2 51.2h535.04c30.72 0 53.76-23.04 53.76-51.2zM512 583.68c-125.44 0-227.84-104.96-227.84-232.96v-263.68H742.4V350.72c-2.56 128-104.96 232.96-230.4 232.96zM512 665.6c-15.36 0-28.16 12.8-28.16 28.16V811.52c0 15.36 12.8 28.16 28.16 28.16s28.16-12.8 28.16-28.16v-117.76c0-15.36-12.8-28.16-28.16-28.16z m-207.36-74.24c-7.68 0-15.36 2.56-20.48 10.24l-76.8 89.6c-7.68 12.8-7.68 28.16 5.12 38.4 12.8 10.24 28.16 7.68 38.4-2.56l76.8-89.6c10.24-12.8 7.68-28.16-2.56-38.4-7.68-5.12-12.8-7.68-20.48-7.68z m-110.08-192h-5.12l-115.2 20.48c-15.36 2.56-25.6 17.92-23.04 30.72 2.56 15.36 17.92 25.6 30.72 23.04l115.2-20.48c15.36-2.56 25.6-17.92 23.04-30.72 0-12.8-12.8-23.04-25.6-23.04z m524.8 192c-5.12 0-12.8 2.56-17.92 7.68-12.8 10.24-12.8 28.16-2.56 38.4l76.8 89.6c10.24 12.8 28.16 12.8 38.4 2.56 12.8-10.24 12.8-28.16 2.56-38.4l-76.8-89.6c-5.12-7.68-12.8-10.24-20.48-10.24z m110.08-192c-12.8 0-25.6 10.24-28.16 23.04-2.56 15.36 7.68 28.16 23.04 30.72l115.2 20.48c15.36 2.56 28.16-7.68 30.72-23.04 2.56-15.36-7.68-28.16-23.04-30.72L832 399.36c0 2.56-2.56 0-2.56 0z"  horiz-adv-x="1024" />

    
    <glyph glyph-name="guding" unicode="&#58909;" d="M334.1824 279.9104l73.728-73.728c-72.6016-61.44-178.6368-156.928-200.5504-174.08C151.7056-11.5712 102.4-25.6 102.4-25.6s14.0288 49.2544 57.7024 104.96c17.152 21.9136 112.64 127.8976 174.08 200.5504zM905.9328 580.608l-197.2736 197.3248a53.4016 53.4016 0 1 1-75.6736-75.6224l15.7184-15.7184-288.1536-203.5712L296.7552 546.816a53.4016 53.4016 0 1 1-75.6224-75.6224l378.0096-377.9584a53.4016 53.4016 0 1 1 75.6224 75.6224l-63.6928 63.6928 203.52 288.256 15.7184-15.7184a53.4016 53.4016 0 1 1 75.6224 75.5712z"  horiz-adv-x="1024" />

    
    <glyph glyph-name="kaoqinguanli" unicode="&#58948;" d="M876.817 740.079h-69.359v88.474c0 18.569-14.746 33.314-33.314 33.314h-2.185c-18.569 0-33.314-14.746-33.314-33.314v-88.474h-451.106v88.474c0 18.569-14.746 33.314-33.314 33.314h-2.185c-18.569 0-33.314-14.746-33.314-33.314v-88.474h-73.728c-61.167 0-111.411-49.698-111.411-110.865v-610.577c0-61.167 49.698-110.865 111.411-110.865h731.819c61.167 0 111.411 49.698 111.411 110.865v610.577c0 61.167-49.698 110.865-111.411 110.865zM781.79 317.918l-305.289-304.196c-3.277-3.277-6.554-5.461-10.377-7.646-6.554-3.823-14.199-6.007-21.845-6.007-12.015 0-22.938 4.369-31.13 13.107l-164.932 164.932c-16.93 16.93-16.93 45.329 0 62.259 8.192 8.192 19.661 13.107 31.13 13.107 12.015 0 22.938-4.369 31.13-13.107l134.349-133.803 274.705 273.613c8.192 8.192 19.661 13.107 31.13 13.107 12.015 0 22.938-4.369 31.13-13.107 17.476-16.93 17.476-45.329 0-62.259zM909.039 495.957h-794.624v152.917h794.624v-152.917z"  horiz-adv-x="1024" />

    
    <glyph glyph-name="ccgl-fahuodanguanli-5" unicode="&#59199;" d="M898.848 138.546h-11.25c-3.763-10.596-9.082-20.413-14.604-30.027l25.854-51.791-40.909-40.909-51.504 25.732c-9.696-5.646-19.596-11.046-30.313-14.85v-10.882l-40.909-40.909h-40.909l-40.909 40.909v11.25c-10.637 3.763-20.454 9.082-30.027 14.604l-51.791-25.854-40.909 40.909 25.732 51.504c-5.646 9.696-11.046 19.596-14.85 30.313h-10.882l-40.909 40.909v40.909l40.909 40.909h10.882c3.846 10.718 9.204 20.618 14.85 30.313l-25.732 51.504 40.909 40.909 51.791-25.896c9.573 5.563 19.391 10.841 30.027 14.646v11.25l40.909 40.909h40.909l40.909-40.909v-11.25c10.596-3.763 20.413-9.082 30.027-14.604l51.791 25.854 40.909-40.909-25.732-51.504c5.646-9.696 11.046-19.596 14.85-30.313h10.882l40.909-40.909v-40.909l-40.909-40.909zM714.758 261.273c-33.913 0-61.363-27.45-61.363-61.363s27.45-61.363 61.363-61.363c33.873 0 61.363 27.45 61.363 61.363s-27.491 61.363-61.363 61.363zM448.848 199.909c0-95.154 50.4-178.037 125.509-225h-411.873c-45.163 0-81.818 36.654-81.818 81.818v654.546c0 45.163 36.654 81.818 81.818 81.818h368.182v-163.637c0-45.163 36.654-81.818 81.818-81.818h163.637v-89.632c-19.759 4.704-40.132 7.813-61.363 7.813-146.863 0-265.909-119.046-265.909-265.909zM203.394 179.454h204.546v40.909h-204.546v-40.909zM203.394 302.182h204.546v40.909h-204.546v-40.909zM407.939 588.546h-204.546v-40.909h204.546v40.909zM448.848 465.818h-245.454v-40.909h245.454v40.909zM571.575 670.363v81.818l163.637-163.637h-81.818c-45.163 0-81.818 36.654-81.818 81.818z"  horiz-adv-x="1024" />

    
    <glyph glyph-name="qiye" unicode="&#59015;" d="M960 32.256h-31.744v448c0 70.656-57.344 128-128 128h-192v64c0 70.656-57.344 128-128 128h-256c-70.656 0-128-57.856-128-128v-640h-32.256c-17.92 0-32.256-14.336-32.256-32.256s14.336-32.256 32.256-32.256h896c17.92 0 32.256 14.336 32.256 32.256 0 18.432-14.336 32.256-32.256 32.256z m-512 127.488H256c-17.92 0-32.256 14.336-32.256 32.256s14.336 32.256 32.256 32.256h192c17.92 0 32.256-13.824 32.256-32.256 0-17.92-14.336-32.256-32.256-32.256z m0 192H256c-17.92 0-32.256 14.336-32.256 32.256 0 18.432 14.336 32.256 32.256 32.256h192c17.92 0 32.256-13.824 32.256-32.256 0-17.92-14.336-32.256-32.256-32.256z m0 192H256c-17.92 0-32.256 14.336-32.256 32.256 0 18.432 14.336 32.256 32.256 32.256h192c17.92 0 32.256-13.824 32.256-32.256 0-17.92-14.336-32.256-32.256-32.256z m167.424-492.032h-7.168V578.56h7.168v-526.848z m152.576 108.032h-64c-17.92 0-32.256 14.336-32.256 32.256s14.336 32.256 32.256 32.256H768c17.92 0 32.256-13.824 32.256-32.256 0-17.92-14.336-32.256-32.256-32.256z m0 192h-64c-17.92 0-32.256 14.336-32.256 32.256 0 18.432 14.336 32.256 32.256 32.256H768c17.92 0 32.256-13.824 32.256-32.256 0-17.92-14.336-32.256-32.256-32.256z"  horiz-adv-x="1024" />

    
    <glyph glyph-name="xiaoxi" unicode="&#58927;" d="M511.9 316c-1 0-1.9 0.1-2.9 0.2-6.8 0.9-17 2.2-414.7 279.8-10.1 7.1-12.6 21-5.5 31.2 7.1 10.1 21 12.6 31.2 5.5 132-92.1 341.2-236.8 390.8-268l393.9 268.2c10.2 6.9 24.2 4.3 31.1-5.9 7-10.2 4.3-24.1-5.9-31.1l-405.4-276c-3.8-2.5-8.2-3.9-12.6-3.9zM831.7 674.2c45.8 0 83.1-37.3 83.1-83.1v-415.9c0-45.8-37.3-83.1-83.1-83.1H192c-45.8 0-83.1 37.3-83.1 83.1V591.1c0 45.8 37.3 83.1 83.1 83.1h639.7m0 44.8H192c-70.3 0-127.8-57.5-127.8-127.8v-415.9c0-70.3 57.5-127.8 127.8-127.8h639.7c70.3 0 127.8 57.5 127.8 127.8V591.1C959.6 661.4 902 719 831.7 719z"  horiz-adv-x="1024" />

    
    <glyph glyph-name="config-rule" unicode="&#59208;" d="M147 782h680v-315.6h50v365.6h-780v-896h307.6v50h-257.6zM237 294.8h107.6v-50h-107.6zM237 615h500v-50h-500zM927 170.1v50h-81.8c-4.2 29.6-15.9 56.9-33.1 79.8l57.8 57.8-35.4 35.4-57.8-57.8c-22.9 17.2-50.2 28.8-79.8 33.1v81.8h-50v-81.8c-29.6-4.2-56.9-15.9-79.8-33.1l-57.8 57.8-35.3-35.3 57.8-57.8c-17.2-22.9-28.8-50.2-33.1-79.8h-81.7v-50h81.8c4.2-29.6 15.9-56.9 33.1-79.8l-57.9-57.9 35.4-35.4 57.8 57.8c22.9-17.2 50.2-28.8 79.8-33.1v-81.8h50v81.8c29.6 4.2 56.9 15.9 79.8 33.1l57.8-57.8 35.4 35.4-57.8 57.8c17.2 22.9 28.8 50.2 33.1 79.8h81.7zM795.7 177.2c-2.9-20.6-11.1-40.2-23.6-56.9l-10.8-14.5-14.5-10.8c-16.7-12.5-36.3-20.6-56.9-23.6l-17.9-2.6-17.9 2.6c-20.6 2.9-40.2 11.1-56.9 23.6l-14.5 10.8-10.8 14.5c-12.5 16.7-20.6 36.3-23.6 56.9l-2.6 17.9 2.6 17.9c2.9 20.6 11.1 40.2 23.6 56.9l10.8 14.5 14.5 10.8c16.7 12.5 36.3 20.6 56.9 23.6l17.9 2.6 17.9-2.6c20.6-2.9 40.2-11.1 56.9-23.6l14.5-10.8 10.8-14.5c12.5-16.7 20.6-36.3 23.6-56.9l2.6-17.9-2.6-17.9zM237 454.9h167.6v-50h-167.6z"  horiz-adv-x="1024" />

    
    <glyph glyph-name="shezhi" unicode="&#58928;" d="M813.962821 209.065805c31.239492 53.697993 88.416725 81.898265 142.364405 75.513858 7.891737 33.56649 12.07399 68.562539 12.07399 104.534821 0 31.734772-3.254114 62.709227-9.43693 92.612281-54.628178-7.227612-112.845091 21.237697-144.296407 75.804477-31.957853 55.4458-26.744107 121.296577 8.381901 164.948773-48.245817 44.828998-106.23658 79.3093-170.445973 99.917663-19.918655-52.841485-74.699306-90.800006-139.17169-90.800005-64.47136 0-119.255081 37.960567-139.173736 90.800005-63.60462-20.414959-121.104195-54.443983-169.077813-98.661043 34.95307-43.795459 39.902802-109.668749 7.721868-164.989705-31.674397-54.443983-90.0182-82.673931-144.619772-75.218123-6.42841-30.459732-9.818623-62.039985-9.818623-94.414323 0-35.332716 4.027733-69.728084 11.651365-102.746082 53.978379 6.180769 111.055328-22.255887 142.084019-76.085886 30.486338-52.896744 27.149337-115.270327-3.725858-158.799725 48.285726-43.638893 105.97359-77.072353 169.666214-96.881515 22.528086 47.999201 74.620511 81.614809 135.292336 81.614809 60.669778 0 112.763227-33.615609 135.292336-81.614809 63.098083 19.624966 120.301923 52.621475 168.31238 95.665827-30.691 43.652196-33.774221 106.029872-3.074012 158.798702zM513.432117 191.286883c-109.257379 0-197.827601 88.570221-197.827601 197.826578s88.570221 197.830671 197.827601 197.830671c109.258403 0 197.827601-88.570221 197.827601-197.828624 0.001023-109.259426-88.569198-197.828624-197.827601-197.828625z"  horiz-adv-x="1024" />

    
    <glyph glyph-name="ready" unicode="&#58884;" d="M978.012 556.268L545.142 872.12a23.296 23.296 0 0 1-32.906 0.84c-0.093-0.092-0.139-0.23-0.23-0.374-0.093 0.092-0.14 0.282-0.282 0.374a23.296 23.296 0 0 1-32.907-0.84L45.942 556.268c-8.704-9.17-8.377-23.599 0.604-32.492v-512.138c0-51.385 41.656-93.092 93.092-93.092h744.724c51.44 0 93.097 41.661 93.097 93.092V523.7760000000001c8.98 8.888 9.303 23.316 0.553 32.492z m-47.104-521.36c0-38.538-31.278-69.821-69.821-69.821H162.908c-38.538 0-69.821 31.278-69.821 69.821V533.97L512 839.634 930.908 533.97v-499.062zM479.094 314.88L211.502 500.367h-75.776L479.09 249.02099999999996c18.201-18.201 47.662-18.201 65.817 0L888.27 500.367h-75.771L544.91 314.88c-18.155-18.202-47.667-18.202-65.817 0zM313.58 206.894L165.473 58.78800000000001a23.29 23.29 0 0 1 0-32.912 23.286 23.286 0 0 1 32.907 0l148.106 148.112a23.296 23.296 0 0 1 0 32.906 23.286 23.286 0 0 1-32.906 0z m396.84 0c-9.067 9.073-23.828 9.073-32.906 0s-9.072-23.834 0-32.906L825.62 25.875999999999976a23.29 23.29 0 0 1 32.912 0 23.29 23.29 0 0 1 0 32.912L710.42 206.894z"  horiz-adv-x="1024" />

    
    <glyph glyph-name="erji-gongdanguanli" unicode="&#60080;" d="M800 768c-6.4 38.4-38.4 64-76.8 64H300.8c-38.4 0-70.4-25.6-76.8-64-70.4-6.4-128-64-128-134.4v-556.8c0-76.8 64-134.4 134.4-134.4h556.8c76.8 0 134.4 64 134.4 134.4V633.6c6.4 70.4-51.2 128-121.6 134.4z m-512-12.8c0 6.4 6.4 12.8 12.8 12.8h422.4c6.4 0 12.8-6.4 12.8-12.8v-38.4c0-6.4-6.4-12.8-12.8-12.8H300.8c-6.4-6.4-12.8 0-12.8 6.4v44.8z m576-684.8c0-38.4-32-70.4-70.4-70.4H230.4c-38.4 0-70.4 32-70.4 70.4V633.6c0 38.4 32 70.4 64 70.4 6.4-38.4 38.4-64 76.8-64h422.4c38.4 0 70.4 32 76.8 64 38.4-6.4 64-32 64-70.4v-563.2zM678.4 518.4l25.6 25.6c-44.8 44.8-128 44.8-179.2-6.4l-32-25.6-192-198.4c0-6.4-6.4-6.4-6.4-12.8l-19.2-147.2c0-12.8 0-19.2 6.4-25.6 6.4-6.4 12.8-6.4 25.6-6.4h6.4l140.8 6.4c6.4 0 6.4 0 12.8 6.4l198.4 198.4 25.6 25.6c25.6 25.6 38.4 57.6 38.4 96 0 32-12.8 64-32 83.2l-19.2-19.2z m-108.8-25.6c25.6 25.6 64 25.6 89.6 6.4 12.8-12.8 12.8-25.6 12.8-38.4 0-19.2-6.4-38.4-19.2-51.2l-6.4-6.4-25.6 32-51.2 57.6z m-51.2-51.2l83.2-83.2L448 204.8l-38.4 38.4-44.8 44.8 153.6 153.6z m-179.2-262.4l6.4 44.8 6.4-6.4 25.6-25.6-38.4-12.8z"  horiz-adv-x="1024" />

    
    <glyph glyph-name="jichushezhi" unicode="&#59232;" d="M896 229.888V-32a32 32 0 0 0-64 0v261.888c-37.248 13.248-64 48.384-64 90.112s26.752 76.864 64 90.112V800a32 32 0 0 0 64 0v-389.888c37.248-13.248 64-48.384 64-90.112s-26.752-76.864-64-90.112zM864 352a32 32 0 1 1 0-64 32 32 0 0 1 0 64z m-320 5.888V-32a32 32 0 0 0-64 0V357.888c-37.248 13.248-64 48.384-64 90.112s26.752 76.864 64 90.112V800a32 32 0 0 0 64 0v-261.888c37.184-13.248 64-48.384 64-90.112s-26.816-76.864-64-90.112zM512 480a32 32 0 1 1 0-64 32 32 0 0 1 0 64z m-320-378.112V-32a32 32 0 0 0-64 0v133.888c-37.248 13.248-64 48.384-64 90.112s26.752 76.864 64 90.112V800a32 32 0 0 0 64 0v-517.888c37.184-13.248 64-48.384 64-90.112s-26.816-76.864-64-90.112zM160 224a32 32 0 1 1 0-64 32 32 0 0 1 0 64z"  horiz-adv-x="1024" />

    
    <glyph glyph-name="jiankong" unicode="&#59182;" d="M457.4464-127.5904c51.49184 0 102.94272 0.0512 154.3936 0.07168M790.95808-62.00832c-17.08032-0.03072-34.432-1.25952-51.30752 0.58368-8.00768 0.78848-19.51232 5.70368-22.25664 11.93472-18.61632 42.74176-35.18976 86.31808-52.44928 129.4592 223.7952 95.5904 302.85312 304.4096 261.62688 486.64064-41.76896 184.77568-202.89024 317.22496-389.42208 323.86048C345.59488 897.31584 178.51392 778.73664 120.0128 597.96992c-51.45088-158.88896-2.8672-404.33152 245.67296-516.24448-13.5424-34.45248-28.95872-68.38272-40.13056-103.6032-9.73824-30.5664-24.832-46.39232-59.20256-40.57088-23.66464 3.97824-44.95872-4.84864-45.7472-32.06144-0.84992-27.82208 20.06528-33.42848 44.25728-33.2544 46.0288 0.46592 92.05248 0.31744 138.07104 0.22016 9.16992 23.41888 69.38624 177.46432 69.38624 177.46432H558.08s59.60192-152.51968 69.38112-177.45408c54.58432 0.01024 109.16864 0 163.79392-0.17408 22.20032-0.05632 39.86432 6.93248 40.33536 30.81216 0.44032 24.9344-16.94208 34.88768-40.63232 34.88768z m-271.2064 225.9968h-0.1024c-84.34176 0.0512-163.39456 32.9728-222.592 92.71808-58.14784 58.69056-89.78432 136.08448-89.07776 217.92768 1.44384 170.52672 140.98432 309.29408 311.05024 309.34528 83.25632 0 161.47968-32.53248 220.42624-91.5968 58.84416-58.97216 91.16672-137.08288 90.98752-219.93984-0.42496-170.0608-139.8016-308.4544-310.69184-308.4544zM519.7056 230.38464c-47.11424 0-91.71968 18.74432-125.5936 52.7872-33.50528 33.67424-51.84 77.71136-51.6096 123.97056 0.44544 95.06304 80.9984 175.744 175.89248 176.19456h0.75264c46.52032 0 90.58816-18.55488 124.0832-52.24448 33.56672-33.75616 52.0192-78.18752 51.97312-125.11744-0.0512-96.68608-78.61248-175.44704-175.14496-175.5904h-0.35328zM523.52512 622.63296c-28.81024 0.14848-50.57536 22.17472-50.07872 50.74944a48.8192 48.8192 0 0 0 48.6144 48.87552c28.46208 0.52736 52.38784-21.76 52.67968-49.024 0.27136-27.4944-23.18848-50.71872-51.21536-50.60096z"  horiz-adv-x="1024" />

    
    <glyph glyph-name="log" unicode="&#58880;" d="M346.396444 585.1591109999999c18.375111 0 33.223111 14.848 33.223111 33.223111L379.619556 751.3884439999999c0 18.375111-14.904889 33.223111-33.223111 33.223111-18.375111 0-33.223111-14.848-33.223111-33.223111l0-132.949333C313.173333 600.007111 328.021333 585.1591109999999 346.396444 585.1591109999999zM512.568889 585.1591109999999c18.375111 0 33.223111 14.848 33.223111 33.223111L545.792 751.3884439999999c0 18.375111-14.848 33.223111-33.223111 33.223111-18.375111 0-33.223111-14.904889-33.223111-33.223111l0-132.949333C479.345778 600.007111 494.250667 585.1591109999999 512.568889 585.1591109999999zM412.899556 720.896l33.223111 0 0-66.446222-33.223111 0 0 66.446222ZM579.128889 720.896l33.223111 0 0-66.446222-33.223111 0 0 66.446222ZM911.36 84.87822200000005l0 539.875556c0.113778 55.125333-44.657778 99.726222-99.669333 99.726222L745.244444 724.48l0-66.446222 66.446222 0c18.318222 0 33.336889-14.904889 33.336889-33.223111l0-539.932444c0-18.318222-15.018667-33.28-33.336889-33.28L213.447111 51.598221999999964c-18.261333 0-33.223111 14.961778-33.223111 33.28L179.712 84.87822200000005l0.512 539.875556c0 18.318222 14.904889 33.223111 33.223111 33.223111L279.893333 657.976889 279.893333 724.48 213.447111 724.48C158.435556 724.48 113.777778 679.879111 113.777778 624.753778l0-539.875556c0-55.239111 44.657778-99.726222 99.669333-99.726222l598.243556 0c53.418667 0 96.654222 41.927111 99.271111 94.776889 0.056889 0.284444 0.398222 0.625778 0.398222 0.910222l0 2.958222c0 0.398222 0.113778 0.739556 0.113778 1.137778L911.36 84.935111zM678.798222 585.1591109999999c18.318222 0 33.223111 14.848 33.223111 33.223111L712.021333 751.3884439999999c0 18.375111-14.904889 33.223111-33.223111 33.223111s-33.223111-14.848-33.223111-33.223111l0-132.949333C645.575111 600.007111 660.309333 585.1591109999999 678.798222 585.1591109999999zM312.604444 451.697778l398.848 0c18.204444 0 33.223111 14.904889 33.223111 33.223111 0 18.375111-15.018667 33.223111-33.223111 33.223111L312.604444 518.144c-18.375111 0-33.223111-14.848-33.223111-33.223111C279.381333 466.602667 294.229333 451.697778 312.604444 451.697778zM711.452444 354.133333L312.604444 354.133333c-18.375111 0-33.223111-14.904889-33.223111-33.223111s14.848-33.223111 33.223111-33.223111l398.848 0c18.204444 0 33.223111 14.904889 33.223111 33.223111S729.656889 354.133333 711.452444 354.133333zM711.452444 183.69422199999997L312.604444 183.69422199999997c-18.375111 0-33.223111-14.904889-33.223111-33.109333 0-18.375111 14.848-33.336889 33.223111-33.336889l398.848 0c18.204444 0 33.223111 14.961778 33.223111 33.336889C744.675556 168.846222 729.656889 183.69422199999997 711.452444 183.69422199999997z"  horiz-adv-x="1024" />

    
    <glyph glyph-name="anquanyongdian" unicode="&#58907;" d="M805.647059-46.682353c0 27.105882-22.588235 49.694118-49.694118 49.694118H266.541176c-27.105882 0-49.694118-22.588235-49.694117-49.694118 0-27.105882 22.588235-49.694118 49.694117-49.694118h489.411765c28.611765 1.505882 49.694118 22.588235 49.694118 49.694118zM933.647059-42.164706H90.352941c-33.129412 0-60.235294 27.105882-60.235294 60.235294V804.141176c0 33.129412 27.105882 60.235294 60.235294 60.235295h843.294118c33.129412 0 60.235294-27.105882 60.235294-60.235295v-786.070588c0-33.129412-27.105882-60.235294-60.235294-60.235294zM886.964706 814.682353H137.035294C106.917647 814.682353 82.823529 790.588235 82.823529 760.470588v-695.717647c0-16.564706 7.529412-30.117647 19.576471-40.658823L891.482353 813.176471c-1.505882 1.505882-3.011765 1.505882-4.517647 1.505882zM891.482353 814.682353L102.4 24.094118c9.035294-7.529412 21.082353-13.552941 34.635294-13.552942h748.42353c30.117647 0 54.211765 24.094118 54.211764 54.211765V758.964706c0 28.611765-21.082353 51.2-48.188235 55.717647zM689.694118 521.035294L307.2 230.4h173.176471l-146.070589-206.305882 382.494118 292.141176H543.623529zM781.552941 743.905882H242.447059c-27.105882 0-49.694118-22.588235-49.694118-49.694117V609.882353c0-27.105882 22.588235-49.694118 49.694118-49.694118H783.058824c27.105882 0 49.694118 22.588235 49.694117 49.694118v85.835294c-1.505882 28.611765-24.094118 48.188235-51.2 48.188235z m24.094118-123.482353c0-19.576471-21.082353-36.141176-45.176471-36.141176H265.035294c-25.6 0-45.176471 16.564706-45.17647 36.141176v61.741177c0 19.576471 21.082353 36.141176 45.17647 36.141176h495.435294c25.6 0 45.176471-16.564706 45.176471-36.141176v-61.741177z"  horiz-adv-x="1024" />

    
    <glyph glyph-name="rili" unicode="&#59211;" d="M784 736H672v32c0 17.6-14.4 32-32 32s-32-14.4-32-32v-32H416v32c0 17.6-14.4 32-32 32s-32-14.4-32-32v-32H240c-88 0-160-72-160-160v-448c0-88 72-160 160-160h544c88 0 160 72 160 160V576c0 88-72 160-160 160z m-544-64h112v-32c0-17.6 14.4-32 32-32s32 14.4 32 32v32h192v-32c0-17.6 14.4-32 32-32s32 14.4 32 32v32h112c52.8 0 96-43.2 96-96v-32H144v32c0 52.8 43.2 96 96 96z m544-640H240c-52.8 0-96 43.2-96 96V480h736v-352c0-52.8-43.2-96-96-96zM288 224h64c17.6 0 32-14.4 32-32s-14.4-32-32-32h-64c-17.6 0-32 14.4-32 32s14.4 32 32 32z m192 0h64c17.6 0 32-14.4 32-32s-14.4-32-32-32h-64c-17.6 0-32 14.4-32 32s14.4 32 32 32z m192 0h64c17.6 0 32-14.4 32-32s-14.4-32-32-32h-64c-17.6 0-32 14.4-32 32s14.4 32 32 32zM288 384h64c17.6 0 32-14.4 32-32s-14.4-32-32-32h-64c-17.6 0-32 14.4-32 32s14.4 32 32 32z m192 0h64c17.6 0 32-14.4 32-32s-14.4-32-32-32h-64c-17.6 0-32 14.4-32 32s14.4 32 32 32z m192 0h64c17.6 0 32-14.4 32-32s-14.4-32-32-32h-64c-17.6 0-32 14.4-32 32s14.4 32 32 32z"  horiz-adv-x="1024" />

    
    <glyph glyph-name="xunluorenyuan" unicode="&#58881;" d="M563.240423 793.679449m-102.320551 0a102.320551 102.320551 0 1 1 204.641102 0 102.320551 102.320551 0 1 1-204.641102 0ZM322.895467 68.19062799999995c-8.907907-20.054828-155.767992-195.805422-155.767992-195.805421h122.447605s106.292996 119.58263 113.924906 134.027884 38.954036 122.784661 38.954035 122.784661l-74.633813 83.469495s-36.113136-124.397715-44.924741-144.476619zM837.50765 380.18404499999997c0 0.409282-90.571744 32.718501-102.609456 37.533586s-29.684998 14.445254-38.520678 32.911104-29.083112 75.957962-44.130252 99.503727c-9.10051 14.228575-57.781017 92.425552-157.284743 88.284579-49.860203-2.094562-175.750594-47.019303-207.506078-65.003644-47.693415-27.301531-124.542167-159.427456-124.542167-159.427457A50.895446 50.895446 0 1 1 247.033807 356.710507s68.927938 109.90431 85.877036 125.192204c19.934451 17.815814 81.302706 35.824231 92.955211 37.076152 6.572591 0.722263-36.907625-163.712882-36.907624-194.216443s3.707615-45.743305 37.557661-83.469495 133.377848-142.045 142.189453-158.103308 78.726636-211.189617 78.726636-211.189617h106.726353s-52.171443 195.805422-85.877036 255.199492c-39.002187 68.735335-125.192204 153.288223-128.394235 166.914913s36.113136 172.548562 36.113135 172.548563 31.298051-72.226271 44.948816-87.466015a255.512473 255.512473 0 0 1 58.599582-47.356359c19.04366-10.882092 98.299955-38.520678 125.481109-46.176662a49.571298 49.571298 0 0 1 5.754026-1.516752 12.663673 12.663673 0 0 1 3.226107-0.505584 49.956504 49.956504 0 0 1 23.497613 96.518374z"  horiz-adv-x="1024" />

    
    <glyph glyph-name="yeweiji" unicode="&#58891;" d="M793.25 149.888v79.664H687.78v70.313H793.25V405.333H687.78v70.313H793.25V581.114H687.78v70.313H793.25V721.74h70.313v-617.8c11.566-10.408 20.742-20.145 27-27.67l-54-44.999a254.813 254.813 0 0 1-31.57 30.234c-21.797 17.403-42.68 27.422-58.606 27.422-10.899 0-15.786-3.516-31.606-22.5-28.125-33.75-47.636-47.812-85.605-47.812s-57.445 14.062-85.605 47.812c-15.82 18.984-20.708 22.5-31.571 22.5-10.899 0-15.785-3.516-31.57-22.5-28.125-33.75-47.672-47.812-85.606-47.812-37.969 0-57.48 14.062-85.605 47.812-15.82 18.984-20.743 22.5-31.606 22.5a80.86 80.86 0 0 1-47.742-16.067c-8.648-6.187-14.414-12.163-16.664-15.187l-3.797-4.289c-9.844-9.457-18.21-18.105-23.097-23.414l-51.75 47.601a678.34 678.34 0 0 0 24.328 24.785c6.398 7.981 16.383 17.895 30.023 27.634 25.312 18.175 55.09 29.25 88.699 29.25 37.969 0 57.48-14.063 85.606-47.813 15.82-18.984 20.742-22.5 31.605-22.5s15.75 3.516 31.57 22.5c28.126 33.75 47.637 47.812 85.606 47.812s57.48-14.062 85.605-47.812c15.82-18.984 20.743-22.5 31.57-22.5 10.9 0 15.786 3.516 31.606 22.5 28.126 33.75 47.637 47.812 85.606 47.812 15.82 0 31.464-3.304 46.863-9.351z m-421.875 114.82c-96.68 0-175.781 80.788-175.781 180.21 0 118.091 163.23 311.978 175.78 311.978S547.158 563.01 547.158 444.92c0-99.423-79.102-180.212-175.782-180.212z"  horiz-adv-x="1024" />

    
    <glyph glyph-name="shebeiguanli" unicode="&#58917;" d="M135.277592 891.719064h220.040134c68.494983-6.849498 124.147157-69.351171 125.003344-137.846154 0.856187-113.016722 0-226.033445 0-339.050168-113.016722 0-226.033445-0.856187-339.050167 0-68.494983 0.856187-130.996656 59.076923-136.989967 128.428094V760.722408C9.41806 828.361204 67.638796 885.725753 135.277592 891.719064z m-59.93311-146.408027c-0.856187-62.501672-0.856187-125.003344 0-187.505017-1.712375-40.240803 35.103679-73.632107 74.488294-71.919732 86.474916-0.856187 173.80602 0 260.280936 0 0 86.474916 0.856187 173.80602 0 260.280936 2.568562 39.384615-31.67893 76.200669-71.919732 74.488294-62.501672 0.856187-125.859532 0.856187-188.361204 0-40.240803 0.856187-75.344482-35.103679-74.488294-75.344481zM677.244147 891.719064h220.040134c66.782609-5.993311 121.578595-65.070234 126.715719-130.996656v-220.040134c-5.993311-65.926421-62.501672-122.434783-129.284281-125.003344-115.585284-1.712375-231.170569 0-346.755853-0.856188 0 113.016722-0.856187 225.177258 0 338.19398 0.856187 70.207358 59.93311 131.852843 129.284281 138.702342z m-59.93311-145.55184c-0.856187-86.474916 0-173.80602 0-260.280936 89.899666 0 178.943144-0.856187 268.842809 0.856187 34.247492 0 64.214047 29.966555 65.070234 64.214047 2.568562 53.939799 0 107.879599 0.856188 161.819398 0 26.541806 3.424749 55.652174-12.84281 78.769231-12.842809 20.548495-36.816054 31.67893-60.789297 30.822742-63.35786 0-125.859532 0.856187-189.217392 0-39.384615-1.712375-73.632107-36.816054-71.919732-76.200669zM4.280936 218.755853C10.274247 288.107023 71.919732 348.040134 142.12709 348.896321c113.016722 0.856187 225.177258 0 338.19398 0 0-113.016722 0.856187-226.889632 0-339.906354 0.856187-70.207358-57.364548-132.70903-126.715719-136.989967H135.277592C69.351171-123.719064 11.130435-68.923077 4.280936-2.996656V218.755853z m71.919733-11.986622c-0.856187-62.501672-0.856187-125.859532 0-188.361204-0.856187-25.685619 12.842809-52.227425 35.959866-64.214047 22.26087-12.842809 47.946488-9.41806 71.919733-9.41806 53.939799 0.856187 108.735786-1.712375 162.675585 0.856187 34.247492 1.712375 63.35786 31.67893 63.357859 65.070234 1.712375 89.899666 0 178.943144 0.856188 268.84281-86.474916 0-173.80602 0.856187-260.280937 0-39.384615 0.856187-74.488294-34.247492-74.488294-72.77592zM546.247492 349.752508c115.585284-0.856187 230.314381 0.856187 345.899665-0.856187 70.207358-1.712375 126.715719-64.214047 130.996656-132.70903v-208.909699c-2.568562-67.638796-57.364548-127.571906-125.003345-134.421405H677.244147c-69.351171 5.137124-130.996656 66.782609-130.140468 137.846154-0.856187 113.016722-0.856187 226.033445-0.856187 339.050167z m71.063545-71.063545c0-89.899666-0.856187-178.943144 0.856187-268.842809 0.856187-36.816054 35.959866-65.070234 71.063545-65.070234 63.35786-0.856187 125.859532-0.856187 189.217392 0 23.973244-0.856187 48.802676 8.561873 61.645484 29.110368 15.411371 23.117057 12.842809 52.227425 13.698997 78.76923-0.856187 51.371237 0.856187 103.598662-0.856187 154.9699 0 35.959866-29.110368 71.063545-66.782609 71.063545-89.899666 0.856187-179.799331 0-268.842809 0z"  horiz-adv-x="1029" />

    
    <glyph glyph-name="jianzhuanquan" unicode="&#58882;" d="M673.264 432.432c16.848 112.528-33.68 150.4-33.68 150.4-3.376-16.32-16-20.624-16-20.624-16.848 87.632-56.432 113.408-56.432 113.408 0-17.184-10.944-20.624-10.944-20.624C518.4 695.312 559.584 740.8 559.584 740.8c-85.904-31.792-77.472-119.424-77.472-119.424-21.056 24-53.904 12.032-53.904 12.032 33.68-39.52 0-103.104 0-103.104-18.528 36.096-58.944 31.792-58.944 31.792 21.888-35.2 8.416-131.44 8.416-131.44-18.512 53.264-67.36 46.4-67.36 46.4 33.904-24.512 38.736-38.656 38.736-133.056s99.376-112.544 99.376-112.544h-57.264v-18.048h252.624v19.696h-28.64c76.64 35.2 98.528 92.8 98.528 145.2s-19.36 79.04-19.36 79.04c0.08-16.336-21.056-24.912-21.056-24.912zM527.264 566.4c0.528-9.456 12.112-12.032 12.112-24s-12.112-12.88-12.112-12.88c-23.056 11.152 0 36.88 0 36.88z m-9.984-290.976c-105.52 0-115.68 86.16-114.112 101.968a39.6 39.6 0 0 1 27.36-7.904 62.4 62.4 0 0 0-10.16 43.808s41.424-43.088 71.904-35.904c0 0-3.072 51.328-23.6 66.992 6.288-4.944 58.176-45.168 61.12-29.648 3.12 16.512-4.432 71.072 10.672 78.256 0 0 39.344-25.84 28.4-80.416 0 0 30.4 6.4 30.4 35.2 0 0 17.984-21.536-4.688-66.064 0 0 23.456 0.72 25.808 12.208 0.08-0.016 2.416-118.496-103.104-118.496z m253.168-330.288h-512a36.576 36.576 0 0 1 0-73.136h512a36.576 36.576 0 0 1 0 73.136zM867.984 896h-712A156.032 156.032 0 0 1 0 739.968V174.39999999999998a156.08 156.08 0 0 1 156.08-156.016h711.904A156.016 156.016 0 0 1 1024 174.39999999999998V739.968A156.08 156.08 0 0 1 867.984 896z m77.968-721.6a78.016 78.016 0 0 0-77.968-78.032H156.08A78.032 78.032 0 0 0 78.048 174.39999999999998V739.968a78.016 78.016 0 0 0 78.032 77.984h711.904a77.968 77.968 0 0 0 77.968-77.984z"  horiz-adv-x="1024" />

    
    <glyph glyph-name="hongwai" unicode="&#59076;" d="M418.427586 489.931034c-17.655172-7.062069-31.77931-14.124138-42.372414-21.186206-7.062069-3.531034-10.593103-10.593103-10.593103-17.655173s0-14.124138 3.531034-21.186207c3.531034-7.062069 14.124138-10.593103 21.186207-10.593103 7.062069 0 10.593103 0 14.124138 3.531034 0 0 3.531034 3.531034 7.062069 3.531035 7.062069 3.531034 17.655172 7.062069 24.717242 10.593103 28.248276 10.593103 56.496552 17.655172 84.744827 17.655173 38.841379 0 74.151724-10.593103 109.462069-35.310345 3.531034-3.531034 10.593103-3.531034 14.124138-3.531035 10.593103 0 17.655172 3.531034 21.186207 10.593104 7.062069 10.593103 3.531034 28.248276-7.062069 35.310345-42.372414 28.248276-91.806897 45.903448-141.241379 45.903448-28.248276 7.062069-63.558621-3.531034-98.868966-17.655173zM817.434483 362.813793H210.096552c-105.931034 0-190.675862-84.744828-190.675862-190.675862 0-88.275862 60.027586-162.427586 141.241379-183.613793h7.062069V-32.662069c0-45.903448 35.310345-81.213793 81.213793-81.213793h529.655172c45.903448 0 81.213793 35.310345 81.213794 81.213793v21.186207h7.062069c84.744828 21.186207 141.241379 98.868966 141.241379 183.613793 0 105.931034-84.744828 190.675862-190.675862 190.675862zM806.841379-22.068966v-14.124137c0-14.124138-14.124138-28.248276-28.248276-28.248276h-529.655172c-7.062069 0-14.124138 3.531034-21.186207 7.062069-3.531034 3.531034-7.062069 10.593103-7.062069 21.186207v17.655172h586.151724v-3.531035z m10.593104 56.496552H210.096552c-74.151724 0-137.710345 60.027586-137.710345 137.710345 0 74.151724 60.027586 137.710345 137.710345 137.710345h607.337931c74.151724 0 137.710345-60.027586 137.710345-137.710345 0-74.151724-63.558621-137.710345-137.710345-137.710345zM764.468966 574.675862c7.062069 0 17.655172 3.531034 21.186206 10.593104 7.062069 10.593103 3.531034 28.248276-7.062069 35.310344-81.213793 52.965517-165.958621 81.213793-250.703448 81.213793-63.558621 0-127.117241-14.124138-190.675862-38.841379-21.186207-7.062069-38.841379-17.655172-56.496552-28.248276-7.062069-3.531034-17.655172-10.593103-21.186207-14.124138-7.062069-3.531034-10.593103-10.593103-10.593103-17.655172s0-14.124138 3.531035-21.186207c7.062069-3.531034 14.124138-7.062069 24.717241-7.062069 7.062069 0 10.593103 0 14.124138 3.531035 0 0 3.531034 0 3.531034 3.531034 3.531034 0 7.062069 3.531034 14.124138 7.062069 14.124138 10.593103 31.77931 17.655172 45.903449 24.717241 56.496552 24.717241 112.993103 35.310345 169.489655 35.310345 77.682759 0 151.834483-24.717241 222.455172-70.620689 3.531034-3.531034 10.593103-3.531034 17.655173-3.531035zM146.537931 715.917241c7.062069 0 10.593103 0 14.124138 3.531035 0 0 3.531034 3.531034 7.062069 3.531034 7.062069 3.531034 14.124138 7.062069 21.186207 14.124138 24.717241 14.124138 52.965517 28.248276 77.682758 38.84138 88.275862 38.841379 180.082759 56.496552 268.358621 56.496551 123.586207 0 243.641379-38.841379 356.634483-112.993103 3.531034-3.531034 10.593103-3.531034 14.124138-3.531035 10.593103 0 17.655172 3.531034 21.186207 10.593104 3.531034 7.062069 7.062069 14.124138 3.531034 21.186207 0 7.062069-7.062069 14.124138-10.593103 17.655172C799.77931 846.565517 669.131034 885.406897 534.951724 885.406897 439.613793 885.406897 340.744828 864.22069 245.406897 825.37931L160.662069 783.006897c-17.655172-10.593103-28.248276-17.655172-31.77931-21.186207-3.531034-3.531034-10.593103-7.062069-10.593104-14.124138s0-14.124138 3.531035-21.186207c7.062069-7.062069 14.124138-10.593103 24.717241-10.593104zM256 172.137931a28.248276 28.248276 0 1 1 56.496552 0 28.248276 28.248276 0 1 1-56.496552 0ZM743.282759 200.386207c-17.655172 0-28.248276-14.124138-28.248276-28.248276 0-7.062069 3.531034-14.124138 7.062069-21.186207 7.062069-7.062069 14.124138-7.062069 21.186207-7.062069 17.655172 0 28.248276 14.124138 28.248275 28.248276 0 7.062069-3.531034 14.124138-7.062068 21.186207s-14.124138 7.062069-21.186207 7.062069zM513.765517 200.386207c-17.655172 0-28.248276-14.124138-28.248276-28.248276 0-7.062069 3.531034-14.124138 7.062069-21.186207 7.062069-7.062069 14.124138-7.062069 21.186207-7.062069 17.655172 0 28.248276 14.124138 28.248276 28.248276 0 17.655172-14.124138 28.248276-28.248276 28.248276z"  horiz-adv-x="1024" />

    
    <glyph glyph-name="shijian" unicode="&#59058;" d="M358.912 896H206.848v-101.376h152.064V896z m459.776 0h-152.064v-102.912h152.064V896z m103.424-51.2h-50.688v-101.376h-254.976V844.8h-204.8v-101.376H156.672V844.8H101.888C45.568 844.8 0 799.232 0 742.912v-769.024c0-56.32 45.568-101.888 101.888-101.888H921.6c56.32 0 101.888 45.568 101.888 101.888V742.912c0.512 56.32-45.056 101.888-101.376 101.888zM206.848 590.848H665.6V486.4H206.848V590.848z m253.952-512H206.848v102.912H460.8v-102.912z m358.4 203.776H206.848V385.536H819.2v-102.912z"  horiz-adv-x="1024" />

    
    <glyph glyph-name="renyuanweizhi" unicode="&#59106;" d="M0 27.354393a511.998 155.354393 0 1 1 1023.996 0 511.998 155.354393 0 1 1-1023.996 0ZM266.569959 27.354393a245.428041 65.982742 0 1 1 490.856082 0 245.428041 65.982742 0 1 1-490.856082 0ZM512.071 795.850391m-100.145609 0a100.145609 100.145609 0 1 1 200.291218 0 100.145609 100.145609 0 1 1-200.291218 0ZM314.163773 533.326417v-213.851165c0-24.963902 20.38592-45.142824 45.347823-45.142824h42.493834L424.798341 55.380284c2.184991-20.980918 19.869922-36.918856 40.96384-36.918856h92.677638c21.094918 0 38.779849 15.937938 40.96384 36.918856l22.792911 218.952144h42.493834c24.961902 0 45.138824 20.178921 45.138823 45.142824V533.326417c0.001 172.867325-395.665454 172.867325-395.665454 0z"  horiz-adv-x="1024" />

    
    <glyph glyph-name="baobiaoguanli" unicode="&#59158;" d="M929 734.5H620.5c-63.9 0-55.6-5.6-55.6 55.6 0 13.9 2.8 27.8-8.3 36.1h-97.3c-11.1-11.1-8.3-25-8.3-36.1 0-58.4 5.6-55.6-55.6-55.6H100.8c-11.1 0-25 2.8-36.1-8.3v-97.3c0-2.8 2.8-5.6 8.3-8.3 30.6-11.1 30.6-11.1 30.6-44.5v-411.4c0-38.9 8.3-47.3 47.2-47.3h222.4c5.6 0 11.1 0 19.5-2.8-8.3-8.3-16.7-13.9-25-19.5-38.9-30.6-77.8-58.4-116.7-88.9-27.8-22.2-25-44.5 8.3-61.1 2.8 0 2.8-2.8 5.6-2.8h5.6c13.9 5.6 27.8 13.9 38.9 25 61.1 50 119.5 97.3 180.7 147.3 11.1 8.3 19.5 11.1 30.6 0 41.7-36.1 83.4-69.5 127.9-102.8 30.6-25 55.6-52.8 94.5-69.5h5.6c33.4 13.9 47.2 41.7 8.3 69.5-22.2 16.7-44.5 36.1-66.7 55.6-22.2 19.5-47.3 38.9-72.3 61.1h255.7c36.1 0 41.7 5.6 44.5 41.7V595.6c0 16.7 2.8 30.6 22.2 30.6 13.9 0 19.5 8.3 19.5 25v61.1c-5.8 16.7-14.2 22.2-30.9 22.2z m-77.8-530.8c0-16.7-2.8-19.5-19.5-19.5H184.1c-16.7 0-19.5 2.8-19.5 19.5v403c0 16.7 2.8 19.5 19.5 19.5H829c16.7 0 19.5-2.8 19.5-19.5 2.7-133.4 2.7-266.8 2.7-403z m0 0M442.6 434.4c13.9 0 16.7 2.8 13.9 16.7-8.3 63.9-63.9 111.2-127.9 111.2-61.1 0-116.7-41.7-133.4-102.8-13.9-58.4 19.5-139 66.7-164l25-8.3c13.9-2.8 22.2-2.8 19.5 16.7-2.8 19.5 0 36.1 0 55.6v52.8c-2.8 16.7 2.8 25 22.2 22.2 39-2.9 75.1-0.1 114-0.1z m0 0M495.4 384.3h-125c-11.1 0-13.9-2.8-13.9-13.9v-122.3c0-8.3 2.8-13.9 13.9-11.1 63.9 5.6 130.6 72.3 136.2 136.2 0 8.4 0 11.1-11.2 11.1z m239.1 150.1c-19.5-2.8-36.1 0-55.6 0h-44.5c-33.4 0-27.8 5.6-30.6-30.6 0-16.7 2.8-22.2 19.5-22.2 36.1 2.8 72.3 2.8 108.4 0 22.2 0 22.2 8.3 22.2 25s5.6 30.6-19.4 27.8z m5.5-200.1H623.3c-11.1 0-16.7-2.8-13.9-13.9v-22.2c0-11.1 5.6-13.9 13.9-13.9h122.3c11.1 0 13.9 2.8 13.9 13.9v22.2c-2.8 11.1-8.3 13.9-19.5 13.9z m0 100.1H623.3c-13.9 0-16.7-5.6-16.7-16.7v-19.5c0-11.1 2.8-13.9 13.9-13.9h122.3c11.1 0 16.7 2.8 13.9 13.9v16.7c0 16.7-2.8 19.5-16.7 19.5z m0 0"  horiz-adv-x="1024" />

    
    <glyph glyph-name="dianmin" unicode="&#58897;" d="M936 576c13.2 0 24 10.8 24 24v80c0 13.2-10.8 24-24 24h-40V800c0 53-43 96-96 96H160C107 896 64 853 64 800v-832c0-53 43-96 96-96h640c53 0 96 43 96 96v96h40c13.2 0 24 10.8 24 24v80c0 13.2-10.8 24-24 24h-40v128h40c13.2 0 24 10.8 24 24v80c0 13.2-10.8 24-24 24h-40v128h40z m-456 64c70.6 0 128-57.4 128-128s-57.4-128-128-128-128 57.4-128 128 57.4 128 128 128z m224-473.6c0-21.2-20-38.4-44.8-38.4H300.8C276 128 256 145.20000000000005 256 166.39999999999998v38.4c0 63.6 60.2 115.2 134.4 115.2h10c24.6-10.2 51.4-16 79.6-16s55.2 5.8 79.6 16h10c74.2 0 134.4-51.6 134.4-115.2v-38.4z"  horiz-adv-x="1024" />

    
    <glyph glyph-name="renyuanliebiao" unicode="&#58950;" d="M583.509333 436.906667a257.450667 257.450667 0 0 1 97.109334 201.557333A257.28 257.28 0 0 1 424.106667 896a257.28 257.28 0 0 1-256.341334-257.536c0-82.517333 38.912-155.818667 99.072-203.093333A429.738667 429.738667 0 0 1 0 37.888v-44.629333c0-23.722667 19.114667-42.922667 42.666667-42.922667h769.194666c23.552 0 42.666667 19.2 42.666667 42.922667v44.629333A429.653333 429.653333 0 0 1 583.509333 436.906667zM254.549333 638.464c0 93.952 76.117333 170.410667 169.642667 170.410667 93.610667 0 169.728-76.458667 169.728-170.410667 0-92.842667-74.24-168.277333-166.229333-170.154667h-0.426667l-4.522667-0.170666a170.154667 170.154667 0 0 0-168.192 170.325333z m-162.56-599.04v1.706667a336.384 336.384 0 0 0 330.24 336.554666l2.048-0.085333 5.12 0.170667c183.893333-1.109333 333.141333-151.722667 333.141334-336.725334l-670.549334-1.706666zM1217.365333 810.666667v-123.733334H768V810.666667h449.365333zM768 554.666667h449.365333v-123.733334H768V554.666667z m152.064-261.802667h297.557333v-123.733333h-297.557333v123.733333z"  horiz-adv-x="1280" />

    
    <glyph glyph-name="gongzuo" unicode="&#58886;" d="M869.68379116 402.34040671c-10.50905292 0-18.34040671-7.94139643-18.34040671-18.34040671v-311.78691897c0-36.33234631-24.53946433-72.37124643-61.27529946-72.37124644H204.00037897c-36.73583514 0-66.63069855 29.56473633-66.63069855 65.91542349V702.24274192c0 36.35068634 29.89486341 65.91542267 66.63069853 65.91542349h344.74463032c10.50905292 0 19.03734256 8.43658703 19.03734256 18.83559731S559.2540622 805.81102085 548.74500928 805.81102085H204.00037897C146.26477802 805.81102085 99.29499531 759.3547695899999 99.29499531 702.24274192v-636.48548384c0-57.11202768 46.96978271-103.56827811 104.70538366-103.56827893h586.06770602C847.80368594-37.81102084999998 888.02419871 15.101053340000021 888.02419871 72.21308103000001V384c0 10.39901111-7.83135379 18.34040671-18.34040755 18.34040671zM907.86851892 755.3932414L874.23221258 788.68108062a57.64389917 57.64389917 0 0 1-80.77115258 1e-8L373.30067618 372.83069211a18.48713022 18.48713022 0 0 1-3.13620969-4.10825088L267.36648516 173.36042532a18.70721548 18.70721548 0 0 1 3.42965589-22.79712551c6.25407852-5.92395143 15.77275022-6.93267353 23.1639343-2.43927466l190.26338214 108.81363537a18.52381109 18.52381109 0 0 1 3.48467761 2.71438001L907.86851892 675.48408819a56.13998566 56.13998566 0 0 1 1e-8 79.9091532z"  horiz-adv-x="1024" />

    
    <glyph glyph-name="fanhui" unicode="&#58898;" d="M641.5 107H61.8v-115.9h579.7c175.8 0 318.8 143 318.8 318.8s-143 318.8-318.8 318.8H305.6l59.3 51.6V833.9L62.3 570.7l302.6-263.2V461.2l-59.3 51.6h335.9c111.9 0 202.9-91 202.9-202.9S753.4 107 641.5 107zM887.3 393.5v-23.7l15.8 11.8z"  horiz-adv-x="1024" />

    
    <glyph glyph-name="wenshidu" unicode="&#58892;" d="M259.413333 199.68h-6.826666c-27.306667 0-51.2-23.893333-51.2-51.2s23.893333-51.2 51.2-51.2 51.2 23.893333 51.2 51.2v10.24c-6.826667 20.48-23.893333 37.546667-44.373334 40.96zM252.586667 302.08c13.653333 0 27.306667-3.413333 40.96-6.826667 3.413333 13.653333 10.24 23.893333 20.48 34.133334l13.653333 13.653333c-20.48 6.826667-40.96 13.653333-64.853333 13.653333-13.653333-17.066667-23.893333-37.546667-27.306667-58.026666 6.826667 3.413333 13.653333 3.413333 17.066667 3.413333zM935.253333 609.28c58.026667 58.026667 58.026667 150.186667 0 208.213333-58.026667 58.026667-150.186667 58.026667-208.213333 0L276.48 370.346667l-10.24-10.24c23.893333 0 44.373333-6.826667 64.853333-13.653334L764.586667 779.946667c17.066667 17.066667 40.96 27.306667 64.853333 27.306666s47.786667-10.24 64.853333-27.306666c34.133333-34.133333 34.133333-92.16 0-129.706667L453.973333 209.92l-10.24-10.24c-13.653333-13.653333-27.306667-20.48-40.96-23.893333 3.413333-10.24 3.413333-20.48 3.413334-27.306667 0-10.24 0-20.48-3.413334-27.306667-13.653333-71.68-75.093333-122.88-150.186666-122.88-85.333333 0-153.6 68.266667-153.6 153.6 0 78.506667 61.44 143.36 139.946666 150.186667 3.413333 20.48 13.653333 40.96 27.306667 58.026667h-13.653333c-116.053333 0-208.213333-95.573333-208.213334-208.213334S136.533333-59.733333 252.586667-59.733333c112.64 0 204.8 92.16 208.213333 204.8 6.826667 6.826667 17.066667 10.24 23.893333 17.066666L935.253333 609.28zM737.28 633.173333c-10.24 10.24-27.306667 10.24-40.96 0L378.88 315.733333l-81.92-81.92c-13.653333 6.826667-27.306667 10.24-44.373333 10.24-54.613333 0-95.573333-44.373333-95.573334-95.573333 0-54.613333 44.373333-95.573333 95.573334-95.573333 54.613333 0 95.573333 44.373333 95.573333 95.573333 0 17.066667-3.413333 30.72-13.653333 44.373333l81.92 81.92 317.44 317.44c13.653333 10.24 13.653333 30.72 3.413333 40.96zM252.586667 97.28c-27.306667 0-51.2 23.893333-51.2 51.2s23.893333 51.2 51.2 51.2h6.826666c20.48-3.413333 37.546667-20.48 40.96-37.546667v-10.24c3.413333-30.72-20.48-54.613333-47.786666-54.613333zM890.88 291.84l-23.893333 34.133333-20.48-34.133333c-10.24-20.48-116.053333-194.56-116.053334-262.826667 0-78.506667 64.853333-143.36 143.36-143.36 78.506667 0 143.36 64.853333 143.36 143.36 6.826667 64.853333-102.4 228.693333-126.293333 262.826667z m-6.826667-395.946667l-54.613333 10.24-51.2 34.133334-10.24 34.133333 3.413333 27.306667 6.826667 13.653333 3.413333 20.48h6.826667c6.826667 44.373333 51.2 126.293333 85.333333 191.146667 44.373333-68.266667 98.986667-163.84 98.986667-201.386667l34.133333-30.72-20.48-61.44-102.4-37.546667zM877.226667-66.56c51.2 0 92.16 40.96 92.16 92.16v3.413333c-10.24-20.48-47.786667-17.066667-47.786667-17.066666-20.48-3.413333-58.026667 23.893333-58.026667 23.893333-47.786667 27.306667-71.68 10.24-78.506666 3.413333 0-3.413333-3.413333-10.24-3.413334-13.653333 3.413333-51.2 44.373333-92.16 95.573334-92.16zM972.8 29.013333c0-3.413333 0-3.413333 0 0 0-54.613333-40.96-95.573333-95.573333-95.573333-51.2 0-92.16 40.96-92.16 92.16 0 3.413333 0 6.826667 3.413333 13.653333h-6.826667l-3.413333-20.48-6.826667-13.653333-3.413333-27.306667 10.24-34.133333 51.2-34.133333 54.613333-10.24 98.986667 37.546666 20.48 61.44-30.72 30.72z"  horiz-adv-x="1024" />

    
    <glyph glyph-name="shebeiguanli1" unicode="&#58895;" d="M204.8 793.6h153.6a102.4 102.4 0 0 0 102.4-102.4v-153.6a102.4 102.4 0 0 0-102.4-102.4H204.8a102.4 102.4 0 0 0-102.4 102.4V691.2a102.4 102.4 0 0 0 102.4 102.4z m356.5568-106.8032l108.5952 108.5952a102.4 102.4 0 0 0 144.7936 0l108.5952-108.5952a102.4 102.4 0 0 0 0-144.7936l-108.544-108.5952a102.4 102.4 0 0 0-144.7936 0l-108.6464 108.5952a102.4 102.4 0 0 0 0 144.7936zM204.8 332.8h153.6a102.4 102.4 0 0 0 102.4-102.4v-153.6a102.4 102.4 0 0 0-102.4-102.4H204.8a102.4 102.4 0 0 0-102.4 102.4v153.6a102.4 102.4 0 0 0 102.4 102.4z m460.8 0h153.6a102.4 102.4 0 0 0 102.4-102.4v-153.6a102.4 102.4 0 0 0-102.4-102.4h-153.6a102.4 102.4 0 0 0-102.4 102.4v153.6a102.4 102.4 0 0 0 102.4 102.4z"  horiz-adv-x="1024" />

    
    <glyph glyph-name="position-map" unicode="&#58885;" d="M512 872.727273C332.055273 872.727273 186.181818 726.853818 186.181818 546.909091c0-143.150545 206.242909-420.608 290.536727-518.539636a46.429091 46.429091 0 0 1 70.56291 0C631.575273 126.30109100000004 837.818182 403.758545 837.818182 546.909091c0 179.944727-145.873455 325.818182-325.818182 325.818182m0-69.818182c141.149091 0 256-114.850909 256-256 0-96.139636-143.313455-316.066909-256-452.096C399.313455 230.84218199999998 256 450.769455 256 546.909091c0 141.149091 114.850909 256 256 256m0-93.090909a139.636364 139.636364 0 0 0 0-279.272727 139.636364 139.636364 0 0 0 0 279.272727z m0-69.818182c-38.493091 0-69.818182-31.325091-69.818182-69.818182s31.325091-69.818182 69.818182-69.818182 69.818182 31.325091 69.818182 69.818182-31.325091 69.818182-69.818182 69.818182z m0-733.090909c-151.319273 0-314.181818 40.052364-314.181818 128 0 22.900364 11.659636 55.947636 67.165091 83.339636 7.191273 3.560727 15.034182 6.981818 23.505454 10.24a34.909091 34.909091 0 0 0 25.181091-65.117091 213.783273 213.783273 0 0 1-17.757091-7.703272c-21.015273-10.379636-27.671273-19.176727-28.346182-21.410909 4.840727-14.894545 87.365818-57.530182 244.433455-57.530182 157.067636 0 239.592727 42.635636 244.433455 58.833454-0.954182 1.931636-11.147636 14.08-44.125091 27.042909a34.885818 34.885818 0 1 0 25.553454 64.954182C810.868364 98.88581799999997 826.181818 61.34690899999998 826.181818 34.90909099999999c0-87.947636-162.862545-128-314.181818-128z"  horiz-adv-x="1024" />

    
    <glyph glyph-name="yijian" unicode="&#58921;" d="M622.313 266.705h-46.546V363.52a35.375 35.375 0 0 1-70.749 0v-96.815h-46.545V363.52a81.92 81.92 0 0 0 163.84 0zM739.607 250.88h-46.545V363.52a35.375 35.375 0 0 1-70.75 0v-112.64h-46.545V363.52a81.92 81.92 0 0 0 163.84 0zM856.902 155.927h-46.546V363.52a35.375 35.375 0 0 1-70.749 0v-96.815h-46.545V363.52a81.92 81.92 0 0 0 163.84 0zM787.55-37.702H418.91a68.887 68.887 0 0 0-48.874 20.48L193.63 157.79a89.367 89.367 0 0 0 126.138 126.138l21.877-21.41V545.977a81.92 81.92 0 0 0 163.84 0V250.88h-46.546V545.978a35.375 35.375 0 0 1-70.749 0v-333.73a25.6 25.6 0 0 0-43.287-18.153l-57.717 57.25a43.753 43.753 0 0 1-60.509 0 42.822 42.822 0 0 1 0-60.509l175.011-175.01a22.807 22.807 0 0 1 15.826-6.517h370.036a22.807 22.807 0 0 1 22.807 22.807V155.927h46.546v-124.276a69.353 69.353 0 0 0-69.353-69.353zM416.116 782.43A181.993 181.993 0 0 1 312.32 451.024v60.51A136.378 136.378 0 0 0 416.116 737.28a136.844 136.844 0 0 0 114.968-213.644v-63.767a181.062 181.062 0 0 1-114.968 322.56z"  horiz-adv-x="1024" />

    
    </font>
</defs>
</svg>
